<svg width="402.197" height="74.414" viewBox="0 0 402.197 74.414" xmlns="http://www.w3.org/2000/svg"><g id="svgGroup" stroke-linecap="round" fill-rule="evenodd" font-size="9pt" stroke="#ff0000" stroke-width="0.25mm" fill="#ff0000" style="stroke:#ff0000;stroke-width:0.25mm;fill:#ff0000"><path d="M 45.215 70.313 L 42.92 70.313 Q 41.504 70.313 40.161 70.41 Q 38.818 70.508 37.402 70.508 A 20.468 20.468 0 0 1 37.163 70.506 Q 36.774 70.502 36.206 70.483 A 6.246 6.246 0 0 1 34.741 70.264 Q 34.033 70.068 33.521 69.727 A 1.104 1.104 0 0 1 33.023 68.926 A 1.61 1.61 0 0 1 33.008 68.701 Q 33.008 68.618 33.202 67.971 A 47.941 47.941 0 0 1 33.276 67.725 A 9.957 9.957 0 0 1 33.606 66.815 A 13.49 13.49 0 0 1 34.058 65.845 A 8.286 8.286 0 0 1 35.303 64.038 A 2.777 2.777 0 0 1 35.867 63.555 A 2.009 2.009 0 0 1 36.963 63.232 A 3.409 3.409 0 0 1 37.529 63.278 A 2.729 2.729 0 0 1 37.939 63.379 A 5.746 5.746 0 0 0 38.072 62.46 A 6.888 6.888 0 0 0 38.086 62.012 Q 38.086 60.596 37.524 59.424 A 22.672 22.672 0 0 0 36.255 57.129 A 105.62 105.62 0 0 1 34.863 54.858 Q 34.18 53.711 33.936 52.344 A 4.207 4.207 0 0 0 33.734 51.617 A 3.24 3.24 0 0 0 33.423 51.001 Q 33.057 50.439 32.642 49.902 A 13.777 13.777 0 0 1 31.86 48.779 Q 31.494 48.193 31.348 47.363 Q 31.263 46.813 31.16 46.501 A 1.995 1.995 0 0 0 31.128 46.411 A 1.739 1.739 0 0 0 31.002 46.149 A 1.258 1.258 0 0 0 30.811 45.898 Q 30.627 45.715 30.337 45.575 A 2.498 2.498 0 0 0 30.298 45.557 A 3.129 3.129 0 0 1 30.083 45.446 Q 29.864 45.323 29.585 45.133 A 10.772 10.772 0 0 1 29.492 45.068 A 2.138 2.138 0 0 1 29.184 44.846 Q 28.943 44.636 28.833 44.385 Q 28.662 43.994 28.589 43.579 A 12.203 12.203 0 0 1 28.496 42.957 A 14.198 14.198 0 0 1 28.467 42.7 Q 28.418 42.236 28.223 41.797 A 30.086 30.086 0 0 0 27.861 41.619 Q 27.69 41.536 27.535 41.465 A 17.993 17.993 0 0 0 27.515 41.455 Q 27.197 41.309 26.807 41.113 Q 26.514 40.43 26.27 39.575 A 10.905 10.905 0 0 0 25.659 37.939 A 4.434 4.434 0 0 0 25.185 37.146 A 3.672 3.672 0 0 0 24.731 36.646 A 1.874 1.874 0 0 0 23.931 36.221 Q 23.642 36.145 23.3 36.134 A 3.593 3.593 0 0 0 23.193 36.133 A 1.607 1.607 0 0 0 22.537 36.28 Q 22.221 36.42 21.899 36.694 A 12.893 12.893 0 0 0 21.228 37.311 A 17.326 17.326 0 0 0 20.532 38.037 A 34.917 34.917 0 0 0 19.141 39.673 A 12.349 12.349 0 0 1 18.457 40.46 A 9.206 9.206 0 0 1 17.773 41.113 A 1.605 1.605 0 0 0 17.725 41.504 L 17.725 41.895 A 15.001 15.001 0 0 0 17.773 43.091 A 15.001 15.001 0 0 1 17.822 44.287 A 5.239 5.239 0 0 1 17.786 44.921 Q 17.733 45.355 17.603 45.703 Q 17.383 46.289 17.09 46.851 A 11.444 11.444 0 0 0 16.577 47.974 A 3.111 3.111 0 0 0 16.399 48.659 A 4.206 4.206 0 0 0 16.357 49.268 A 13.654 13.654 0 0 0 16.724 52.393 A 13.654 13.654 0 0 1 17.09 55.518 Q 17.09 56.348 17.017 57.178 A 18.879 18.879 0 0 0 16.943 58.838 A 7.831 7.831 0 0 0 17.005 59.858 Q 17.142 60.893 17.578 61.548 Q 18.213 62.5 19.141 63.037 A 6.527 6.527 0 0 0 21.017 63.758 A 7.407 7.407 0 0 0 21.191 63.794 A 61.404 61.404 0 0 1 22.266 64.014 A 46.715 46.715 0 0 1 23.242 64.233 A 7.292 7.292 0 0 1 23.985 64.449 Q 24.353 64.579 24.66 64.74 A 4.097 4.097 0 0 1 24.805 64.819 A 1.205 1.205 0 0 1 25.412 65.692 A 1.837 1.837 0 0 1 25.439 66.016 A 2.935 2.935 0 0 1 25.353 66.707 Q 25.28 67.008 25.145 67.328 A 4.972 4.972 0 0 1 25.122 67.383 A 5.488 5.488 0 0 1 24.268 68.75 A 6.354 6.354 0 0 1 23.071 69.849 Q 22.412 70.313 21.777 70.361 A 3.558 3.558 0 0 1 21.191 70.41 L 20.605 70.41 Q 19.873 70.41 19.141 70.239 A 6.64 6.64 0 0 0 17.627 70.068 A 4.062 4.062 0 0 0 16.382 70.264 Q 15.771 70.459 15.137 70.605 A 64.372 64.372 0 0 1 11.963 71.216 A 19.283 19.283 0 0 1 8.789 71.484 A 2.589 2.589 0 0 1 8.279 71.429 Q 8.024 71.378 7.739 71.279 A 6.08 6.08 0 0 1 7.275 71.094 Q 6.396 70.703 5.591 70.068 A 6.478 6.478 0 0 1 4.224 68.604 A 3.419 3.419 0 0 1 3.814 67.795 A 2.766 2.766 0 0 1 3.662 66.895 A 3.078 3.078 0 0 1 3.956 65.543 A 3.068 3.068 0 0 1 4.59 64.673 Q 5.518 63.77 6.641 63.379 A 2.769 2.769 0 0 1 6.917 62.971 Q 7.089 62.763 7.282 62.633 A 1.252 1.252 0 0 1 7.69 62.451 A 11.843 11.843 0 0 1 8.507 62.284 A 10.148 10.148 0 0 1 8.862 62.231 Q 9.424 62.158 9.863 61.841 A 0.872 0.872 0 0 0 10.105 61.559 Q 10.333 61.157 10.4 60.352 A 4.383 4.383 0 0 1 10.708 59.101 A 3.979 3.979 0 0 1 10.962 58.594 Q 11.426 57.813 11.426 56.885 L 11.377 56.641 Q 11.035 53.223 10.669 49.854 Q 10.303 46.484 10.303 43.018 A 172.203 172.203 0 0 1 10.425 36.548 Q 10.547 33.301 10.889 30.078 A 48.867 48.867 0 0 1 11.108 28.687 A 8.462 8.462 0 0 0 11.23 27.246 A 2.774 2.774 0 0 0 10.84 25.806 A 2.814 2.814 0 0 1 10.455 24.521 A 3.399 3.399 0 0 1 10.449 24.316 A 14.225 14.225 0 0 1 10.541 22.678 A 12.866 12.866 0 0 1 10.571 22.437 A 13.85 13.85 0 0 0 10.691 20.8 A 15.406 15.406 0 0 0 10.693 20.557 A 7.003 7.003 0 0 0 10.586 19.318 A 6.497 6.497 0 0 0 10.571 19.238 A 6.708 6.708 0 0 1 10.449 17.969 A 33.922 33.922 0 0 1 10.498 16.138 A 33.019 33.019 0 0 0 10.547 14.355 A 27.045 27.045 0 0 0 10.525 13.242 Q 10.478 12.1 10.327 11.328 Q 10.107 10.205 9.448 9.644 A 2.82 2.82 0 0 0 8.695 9.191 Q 8.233 8.999 7.642 8.911 A 12.682 12.682 0 0 0 6.851 8.821 Q 5.899 8.74 4.59 8.74 A 26.232 26.232 0 0 1 3.003 8.691 A 4.499 4.499 0 0 1 2.064 8.538 A 3.822 3.822 0 0 1 1.538 8.35 Q 0.879 8.057 0.439 7.495 Q 0.09 7.049 0.018 6.309 A 4.163 4.163 0 0 1 0 5.908 A 4.885 4.885 0 0 1 0.261 4.356 A 5.953 5.953 0 0 1 0.464 3.833 A 4.501 4.501 0 0 1 1.144 2.733 A 3.946 3.946 0 0 1 1.758 2.148 Q 2.333 1.706 3.488 1.364 A 11.917 11.917 0 0 1 3.735 1.294 Q 4.992 0.951 6.59 0.716 A 34.235 34.235 0 0 1 6.812 0.684 A 46.197 46.197 0 0 1 9.463 0.391 A 53.561 53.561 0 0 1 10.474 0.317 A 162.165 162.165 0 0 1 14.233 0.122 A 162.695 162.695 0 0 1 15.985 0.061 A 122.225 122.225 0 0 1 17.578 0.024 Q 18.932 0.003 19.817 0 A 77.761 77.761 0 0 1 20.02 0 A 22.087 22.087 0 0 1 21.061 0.023 Q 21.526 0.045 21.931 0.088 A 9.745 9.745 0 0 1 22.681 0.195 Q 23.73 0.391 24.39 0.977 A 2.857 2.857 0 0 1 25.074 1.907 A 3.923 3.923 0 0 1 25.317 2.588 Q 25.586 3.613 25.586 5.273 A 6.197 6.197 0 0 1 25.447 6.619 A 4.498 4.498 0 0 1 24.805 8.154 A 2.444 2.444 0 0 1 23.51 9.118 Q 23.077 9.264 22.541 9.308 A 5.817 5.817 0 0 1 22.07 9.326 Q 21.533 9.326 20.996 9.253 Q 20.459 9.18 19.922 9.18 A 2.079 2.079 0 0 0 19.064 9.372 Q 18.76 9.509 18.457 9.741 Q 17.725 10.303 17.163 11.035 A 10.226 10.226 0 0 0 16.657 11.755 A 7.698 7.698 0 0 0 16.26 12.451 A 7.005 7.005 0 0 0 16.118 12.75 Q 15.928 13.181 15.918 13.405 A 0.541 0.541 0 0 0 15.918 13.428 A 4.429 4.429 0 0 0 16.235 15.063 A 4.429 4.429 0 0 1 16.553 16.699 A 5.835 5.835 0 0 1 16.269 18.527 A 5.55 5.55 0 0 1 16.26 18.555 A 5.827 5.827 0 0 0 15.967 20.403 A 6.611 6.611 0 0 0 15.967 20.41 A 5.419 5.419 0 0 0 15.979 20.782 A 4.037 4.037 0 0 0 16.016 21.118 Q 16.064 21.436 16.162 21.777 Q 16.209 22.153 16.256 22.982 A 55.43 55.43 0 0 1 16.26 23.047 A 151.47 151.47 0 0 1 16.307 23.95 Q 16.332 24.458 16.357 25.024 Q 16.406 26.123 16.504 27.271 A 20.595 20.595 0 0 0 16.626 28.369 A 15.967 15.967 0 0 0 16.797 29.37 A 8.354 8.354 0 0 0 16.961 30.036 Q 17.055 30.358 17.168 30.628 A 4.038 4.038 0 0 0 17.31 30.933 A 1.536 1.536 0 0 0 17.5 31.221 Q 17.774 31.543 18.164 31.543 Q 18.945 31.543 19.995 30.273 A 20.829 20.829 0 0 0 21.161 28.714 A 27.03 27.03 0 0 0 22.046 27.319 A 37.755 37.755 0 0 0 23.41 24.82 A 33.319 33.319 0 0 0 23.804 23.999 Q 24.548 22.39 24.702 21.655 A 2.733 2.733 0 0 0 24.707 21.631 A 7.954 7.954 0 0 0 26.489 20.532 Q 27.295 19.873 27.979 19.141 Q 28.449 18.671 29.394 17.612 A 110.745 110.745 0 0 0 29.468 17.529 Q 30.469 16.406 31.494 15.137 A 31.744 31.744 0 0 0 32.563 13.739 A 25.073 25.073 0 0 0 33.276 12.695 A 8.892 8.892 0 0 0 33.606 12.145 Q 34.033 11.365 34.033 10.889 Q 34.033 10.156 33.643 9.326 Q 33.252 8.496 32.813 7.568 A 38.729 38.729 0 0 1 31.982 5.688 Q 31.592 4.736 31.592 3.711 A 1.322 1.322 0 0 1 32.022 2.735 Q 32.209 2.553 32.478 2.396 A 3.345 3.345 0 0 1 32.666 2.295 A 9.132 9.132 0 0 1 33.838 1.813 Q 34.433 1.612 35.114 1.461 A 14.934 14.934 0 0 1 35.205 1.44 A 22.689 22.689 0 0 1 38.159 1.001 Q 39.387 0.9 40.166 0.883 A 13.811 13.811 0 0 1 40.479 0.879 A 29.597 29.597 0 0 1 47.73 1.782 A 37.93 37.93 0 0 1 54.639 4.248 A 9.297 9.297 0 0 1 54.282 5.144 Q 53.865 6.039 53.345 6.543 A 5.279 5.279 0 0 1 52.403 7.275 A 4.494 4.494 0 0 1 51.709 7.617 A 6.341 6.341 0 0 1 50.184 7.995 A 7.342 7.342 0 0 1 49.805 8.032 Q 48.779 8.105 47.705 8.276 Q 46.631 8.447 45.532 8.887 A 5.227 5.227 0 0 0 44.386 9.533 Q 43.921 9.873 43.47 10.336 A 8.871 8.871 0 0 0 43.408 10.4 A 23.928 23.928 0 0 0 41.943 12.109 A 48.808 48.808 0 0 1 40.552 13.818 Q 39.844 14.648 39.063 15.405 A 8.779 8.779 0 0 1 37.632 16.522 A 10.048 10.048 0 0 1 37.256 16.748 L 37.256 16.992 Q 37.256 18.75 36.328 20.117 A 52.525 52.525 0 0 1 34.84 22.195 A 59.319 59.319 0 0 1 34.302 22.9 A 24.381 24.381 0 0 0 32.392 25.77 A 26.792 26.792 0 0 0 32.275 25.977 Q 31.348 27.637 31.348 29.98 A 13.07 13.07 0 0 0 31.417 31.288 A 17.315 17.315 0 0 0 31.592 32.544 Q 31.836 33.936 32.373 35.23 A 8.965 8.965 0 0 0 33.765 37.549 Q 34.619 38.574 35.84 39.014 Q 35.84 39.257 35.937 40.106 A 47.094 47.094 0 0 0 35.938 40.112 A 30.049 30.049 0 0 0 36.053 41.003 A 38.542 38.542 0 0 0 36.206 41.968 Q 36.377 42.969 36.646 43.921 Q 36.914 44.873 37.256 45.313 A 3.182 3.182 0 0 1 37.403 45.497 Q 37.569 45.723 37.622 45.898 A 2.87 2.87 0 0 1 37.692 46.18 A 2.318 2.318 0 0 1 37.72 46.362 L 37.769 46.802 A 1.215 1.215 0 0 0 37.798 46.959 Q 37.838 47.122 37.927 47.333 A 4.194 4.194 0 0 0 37.939 47.363 A 3.926 3.926 0 0 0 38.367 47.63 A 3.275 3.275 0 0 0 38.623 47.754 A 12.241 12.241 0 0 1 38.977 47.913 A 15.576 15.576 0 0 1 39.355 48.096 L 39.355 50.147 A 1.677 1.677 0 0 0 39.435 50.345 Q 39.537 50.557 39.675 50.647 A 0.41 0.41 0 0 0 39.746 50.684 A 1.189 1.189 0 0 0 39.95 50.743 Q 40.137 50.781 40.381 50.781 A 0.289 0.289 0 0 1 40.587 50.874 Q 40.691 50.976 40.772 51.19 A 2.326 2.326 0 0 1 40.845 51.416 A 15.325 15.325 0 0 1 40.973 51.93 Q 41.04 52.217 41.106 52.545 A 30.551 30.551 0 0 1 41.187 52.954 A 178.643 178.643 0 0 0 41.457 54.35 A 201.314 201.314 0 0 0 41.553 54.834 A 6.402 6.402 0 0 0 41.742 55.565 Q 41.905 56.066 42.139 56.445 Q 42.627 57.275 42.993 58.203 A 214.461 214.461 0 0 0 43.726 60.034 A 24.916 24.916 0 0 0 44.531 61.816 A 6.652 6.652 0 0 0 45.605 63.379 A 6.522 6.522 0 0 0 47.419 64.771 A 7.787 7.787 0 0 0 47.925 65.015 A 14.043 14.043 0 0 0 49.41 65.573 A 11.01 11.01 0 0 0 50.586 65.869 A 5.439 5.439 0 0 1 50.787 65.932 Q 51.135 66.046 51.758 66.284 A 16.466 16.466 0 0 1 53.123 66.881 A 18.536 18.536 0 0 1 53.442 67.041 A 11.199 11.199 0 0 1 54.242 67.493 A 8.514 8.514 0 0 1 54.932 67.969 Q 55.566 68.457 55.566 68.848 A 0.472 0.472 0 0 1 55.415 69.183 Q 55.161 69.442 54.482 69.625 A 5.505 5.505 0 0 1 54.468 69.629 Q 53.627 69.853 52.499 69.992 A 23.95 23.95 0 0 1 51.782 70.068 A 48.835 48.835 0 0 1 49.713 70.213 A 58.923 58.923 0 0 1 48.389 70.264 Q 46.582 70.313 45.215 70.313 Z M 147.217 66.211 L 147.705 66.162 L 147.754 65.772 A 1.119 1.119 0 0 0 147.728 65.523 Q 147.678 65.305 147.534 65.161 A 1.052 1.052 0 0 0 147.118 64.908 A 1.336 1.336 0 0 0 146.973 64.868 A 3.254 3.254 0 0 0 146.289 64.795 L 145.654 64.795 A 3.027 3.027 0 0 0 146.484 63.281 A 8.08 8.08 0 0 0 146.67 61.938 A 7.201 7.201 0 0 0 146.68 61.572 Q 146.68 60.693 146.46 59.546 Q 146.24 58.398 145.752 57.324 A 8.257 8.257 0 0 0 144.865 55.809 A 7.425 7.425 0 0 0 144.556 55.42 A 3.434 3.434 0 0 0 143.688 54.679 A 3.062 3.062 0 0 0 142.871 54.346 A 19.284 19.284 0 0 0 142.489 53.566 A 23.964 23.964 0 0 0 142.188 53.003 A 7.346 7.346 0 0 0 141.284 51.709 A 4.802 4.802 0 0 0 140.112 50.732 Q 139.453 50.342 138.672 50.342 Q 137.901 50.342 136.754 51.056 A 9.965 9.965 0 0 0 136.426 51.27 A 22.497 22.497 0 0 0 134.008 53.172 A 24.899 24.899 0 0 0 133.765 53.394 A 30.595 30.595 0 0 0 132.556 54.572 A 23.362 23.362 0 0 0 131.519 55.713 A 13.579 13.579 0 0 0 131.195 56.108 Q 130.716 56.719 130.602 57.049 A 0.558 0.558 0 0 0 130.566 57.227 A 3.55 3.55 0 0 0 130.713 58.252 A 3.55 3.55 0 0 1 130.859 59.277 A 3.494 3.494 0 0 1 130.712 60.304 A 3.139 3.139 0 0 1 130.518 60.791 A 4.665 4.665 0 0 1 129.639 62.012 A 2.543 2.543 0 0 0 129.806 62.598 A 1.764 1.764 0 0 0 130.371 63.33 A 3.836 3.836 0 0 0 131.281 63.83 A 4.757 4.757 0 0 0 131.763 63.989 A 9.317 9.317 0 0 0 133.398 64.282 A 14.244 14.244 0 0 1 134.192 64.374 A 10.944 10.944 0 0 1 134.912 64.502 A 5.444 5.444 0 0 0 135.121 64.699 Q 135.381 64.932 135.767 65.234 A 11.826 11.826 0 0 1 136.841 66.187 A 9.149 9.149 0 0 1 137.541 66.969 A 8.039 8.039 0 0 1 137.744 67.236 Q 138.135 67.773 138.135 68.213 Q 138.135 68.475 138.029 68.624 A 0.448 0.448 0 0 1 137.769 68.799 Q 137.402 68.897 136.963 68.945 A 3.275 3.275 0 0 0 136.43 69.048 A 2.769 2.769 0 0 0 136.157 69.141 Q 135.799 69.284 135.791 69.754 A 1.271 1.271 0 0 0 135.791 69.775 A 2.012 2.012 0 0 0 135.807 70.037 Q 135.826 70.177 135.865 70.296 A 1.136 1.136 0 0 0 135.889 70.361 Q 133.545 70.459 131.323 70.825 A 63.88 63.88 0 0 0 126.855 71.729 A 9.169 9.169 0 0 1 125 72.022 A 35.765 35.765 0 0 1 123.12 72.07 A 38.622 38.622 0 0 0 121.191 72.119 Q 120.215 72.168 119.287 72.363 A 6.508 6.508 0 0 1 117.92 72.51 A 5.057 5.057 0 0 1 115.82 72.07 Q 114.844 71.631 114.111 70.85 Q 113.379 70.068 112.964 69.092 A 5.294 5.294 0 0 1 112.549 67.062 A 6.043 6.043 0 0 1 112.549 66.992 A 3.574 3.574 0 0 1 113.159 64.99 A 1.991 1.991 0 0 1 114.622 64.09 A 3.052 3.052 0 0 1 115.039 64.063 A 0.703 0.703 0 0 1 115.586 64.314 A 1.05 1.05 0 0 1 115.674 64.429 A 0.941 0.941 0 0 0 115.854 64.633 A 0.69 0.69 0 0 0 116.309 64.795 A 0.342 0.342 0 0 0 116.528 64.714 Q 116.593 64.661 116.65 64.575 Q 116.776 64.386 116.92 64.143 A 13.873 13.873 0 0 0 116.968 64.063 A 1.939 1.939 0 0 1 117.277 63.667 A 2.353 2.353 0 0 1 117.432 63.525 A 1.547 1.547 0 0 1 117.855 63.277 A 2.031 2.031 0 0 1 118.164 63.184 A 5.355 5.355 0 0 0 119.308 62.896 A 4.059 4.059 0 0 0 120.435 62.256 Q 121.338 61.523 121.826 60.474 A 8.348 8.348 0 0 0 122.426 58.639 A 9.623 9.623 0 0 0 122.51 58.179 A 15.892 15.892 0 0 0 122.705 55.713 Q 122.705 54.736 122.485 53.833 Q 122.266 52.93 122.266 52.002 A 7.601 7.601 0 0 1 122.505 50.139 A 9.14 9.14 0 0 1 122.73 49.39 A 8.383 8.383 0 0 0 123.127 47.593 A 10.698 10.698 0 0 0 123.193 46.387 Q 123.193 44.092 122.925 41.87 Q 122.656 39.648 122.656 37.354 A 31.378 31.378 0 0 1 122.852 33.887 A 31.378 31.378 0 0 0 123.047 30.42 A 4.202 4.202 0 0 0 122.947 29.491 A 3.783 3.783 0 0 0 122.876 29.224 A 16.783 16.783 0 0 0 122.558 28.278 A 15.171 15.171 0 0 0 122.51 28.149 A 102.77 102.77 0 0 1 122.321 27.649 A 87.907 87.907 0 0 1 122.144 27.173 A 2.734 2.734 0 0 1 121.973 26.221 A 5.859 5.859 0 0 1 122.291 24.336 A 6.599 6.599 0 0 1 122.314 24.268 A 5.923 5.923 0 0 0 122.653 22.498 A 5.583 5.583 0 0 0 122.656 22.314 Q 122.656 21.191 122.29 20.166 A 6.339 6.339 0 0 1 121.924 18.018 Q 121.924 17.188 122.095 16.333 A 8.817 8.817 0 0 0 122.266 14.6 A 6.525 6.525 0 0 0 122.199 13.633 Q 122.125 13.14 121.969 12.742 A 2.688 2.688 0 0 0 121.509 11.963 A 4.489 4.489 0 0 0 119.629 10.669 A 8.476 8.476 0 0 0 117.981 10.248 A 10.202 10.202 0 0 0 117.163 10.156 A 23.035 23.035 0 0 1 115.722 10.008 A 18.038 18.038 0 0 1 114.697 9.839 Q 113.594 9.623 112.844 9.101 A 3.672 3.672 0 0 1 112.817 9.082 Q 112.114 8.583 112.064 7.493 A 3.713 3.713 0 0 1 112.061 7.324 A 5.185 5.185 0 0 1 112.15 6.334 Q 112.266 5.737 112.534 5.261 A 3.038 3.038 0 0 1 112.695 5.005 A 4.284 4.284 0 0 1 114.307 3.613 A 6.902 6.902 0 0 1 116.094 3.015 A 7.966 7.966 0 0 1 116.455 2.954 Q 117.627 2.783 118.75 2.783 A 184.525 184.525 0 0 1 120.251 3.113 Q 121.712 3.44 122.809 3.715 A 53.252 53.252 0 0 1 123.73 3.955 A 61.497 61.497 0 0 1 124.577 4.19 Q 125.392 4.423 125.967 4.617 A 13.898 13.898 0 0 1 126.44 4.785 Q 127.344 5.127 127.563 5.322 A 3.16 3.16 0 0 1 127.689 5.44 Q 127.808 5.557 127.874 5.654 A 0.858 0.858 0 0 1 127.881 5.664 A 7.003 7.003 0 0 1 128.04 6.228 Q 128.236 7.037 128.394 8.301 A 73.935 73.935 0 0 1 128.682 11.034 A 84.285 84.285 0 0 1 128.76 11.987 A 110.471 110.471 0 0 1 128.938 14.798 A 97.75 97.75 0 0 1 128.98 15.698 A 144.679 144.679 0 0 1 129.012 16.533 Q 129.053 17.693 129.053 18.352 A 25.435 25.435 0 0 1 129.053 18.359 Q 129.053 19.678 128.662 20.874 Q 128.271 22.07 128.271 23.34 A 9.466 9.466 0 0 0 128.638 25.977 Q 129.004 27.246 129.102 28.613 Q 129.15 29.492 129.175 30.347 A 60.699 60.699 0 0 1 129.199 32.08 A 139.805 139.805 0 0 1 129.175 34.668 A 142.405 142.405 0 0 0 129.15 37.305 A 67.843 67.843 0 0 0 129.248 40.967 A 34.035 34.035 0 0 0 129.639 44.58 A 1.588 1.588 0 0 0 129.822 44.641 Q 129.916 44.666 130.002 44.674 A 0.841 0.841 0 0 0 130.078 44.678 L 130.518 44.678 A 3.052 3.052 0 0 0 131.251 44.594 A 2.228 2.228 0 0 0 132.129 44.165 A 7.369 7.369 0 0 0 133.216 43.075 A 8.204 8.204 0 0 0 133.301 42.969 A 70.35 70.35 0 0 1 134.387 41.621 A 76.092 76.092 0 0 1 134.424 41.577 A 3.955 3.955 0 0 1 135.889 40.479 A 5.141 5.141 0 0 0 137.866 39.038 A 30.546 30.546 0 0 0 139.404 37.061 A 22.829 22.829 0 0 1 140.942 35.132 A 5.382 5.382 0 0 1 142.92 33.74 A 2.24 2.24 0 0 0 143.55 33.37 Q 144.067 32.928 144.131 32.197 A 2.442 2.442 0 0 0 144.141 31.982 A 5.392 5.392 0 0 0 143.945 30.542 A 13.945 13.945 0 0 0 143.481 29.15 Q 143.213 28.467 143.018 27.759 A 5.392 5.392 0 0 1 142.822 26.318 L 142.871 25.781 L 143.262 25.83 L 143.408 25.83 A 3.146 3.146 0 0 0 143.799 25.806 Q 143.966 25.785 143.99 25.638 A 0.325 0.325 0 0 0 143.994 25.586 A 1.617 1.617 0 0 1 143.75 24.739 A 1.934 1.934 0 0 1 143.75 24.707 A 2.275 2.275 0 0 1 143.767 24.413 Q 143.809 24.097 143.949 23.931 A 0.494 0.494 0 0 1 144.067 23.828 A 1.132 1.132 0 0 1 144.35 23.707 Q 144.488 23.668 144.654 23.649 A 2.872 2.872 0 0 1 144.971 23.633 A 5.659 5.659 0 0 1 147.046 24.023 Q 148.047 24.414 149.121 24.414 A 4.997 4.997 0 0 0 150.608 24.195 A 4.751 4.751 0 0 0 150.61 24.194 A 30.116 30.116 0 0 0 152.051 23.706 A 30.116 30.116 0 0 1 153.491 23.218 Q 154.199 22.998 154.98 22.998 A 9.911 9.911 0 0 1 157.568 23.34 A 9.911 9.911 0 0 0 160.156 23.682 Q 161.523 23.682 162.842 23.291 Q 164.16 22.9 165.576 22.9 Q 165.782 22.9 166.127 23.005 A 4.931 4.931 0 0 1 166.26 23.047 A 4.472 4.472 0 0 1 167.114 23.438 A 4.492 4.492 0 0 1 167.628 23.788 A 3.827 3.827 0 0 1 167.847 23.975 A 1.371 1.371 0 0 1 168.004 24.144 Q 168.079 24.242 168.119 24.339 A 0.58 0.58 0 0 1 168.164 24.561 A 0.814 0.814 0 0 1 168.065 24.784 A 0.628 0.628 0 0 1 167.773 25.024 A 0.854 0.854 0 0 0 167.654 25.085 Q 167.504 25.177 167.484 25.302 A 0.248 0.248 0 0 0 167.48 25.342 Q 167.48 25.576 167.706 25.879 A 2.09 2.09 0 0 0 167.725 25.903 A 13.2 13.2 0 0 0 167.987 26.233 A 17.568 17.568 0 0 0 168.286 26.587 A 5.272 5.272 0 0 1 168.848 27.368 Q 169.092 27.783 169.092 28.223 A 0.799 0.799 0 0 1 168.93 28.687 Q 168.73 28.971 168.28 29.246 A 4.94 4.94 0 0 1 167.92 29.443 A 14.699 14.699 0 0 1 166.657 29.999 A 19.973 19.973 0 0 1 165.21 30.493 A 28.318 28.318 0 0 1 162.759 31.118 A 25.305 25.305 0 0 1 162.207 31.226 Q 160.742 31.494 160.156 31.494 A 4.632 4.632 0 0 1 159.62 31.465 Q 158.987 31.391 158.618 31.128 Q 158.178 30.814 157.756 30.769 A 1.322 1.322 0 0 0 157.617 30.762 A 2.662 2.662 0 0 0 157.057 30.827 Q 156.435 30.962 155.615 31.372 A 17.606 17.606 0 0 0 154.354 32.072 Q 153.7 32.47 153.003 32.959 A 31.391 31.391 0 0 0 150.99 34.502 A 36.679 36.679 0 0 0 150.195 35.181 A 40.091 40.091 0 0 0 148.53 36.728 A 33.56 33.56 0 0 0 147.632 37.647 A 22.152 22.152 0 0 0 146.597 38.824 A 16.092 16.092 0 0 0 145.728 39.99 Q 145.09 40.936 144.99 41.605 A 1.62 1.62 0 0 0 144.971 41.846 A 7.732 7.732 0 0 1 144.727 43.359 A 5.849 5.849 0 0 0 144.531 44.873 A 1.737 1.737 0 0 0 144.614 45.42 A 1.446 1.446 0 0 0 144.971 45.996 A 5.502 5.502 0 0 0 145.678 46.59 A 6.492 6.492 0 0 0 145.996 46.802 A 21.382 21.382 0 0 1 146.889 47.392 A 24.272 24.272 0 0 1 147.192 47.607 A 2.833 2.833 0 0 1 147.857 48.268 A 2.594 2.594 0 0 1 148.096 48.682 A 9.817 9.817 0 0 0 148.487 49.452 Q 148.865 50.125 149.414 50.903 A 93.604 93.604 0 0 0 150.336 52.185 A 114.479 114.479 0 0 0 151.343 53.54 Q 152.393 54.932 153.467 56.348 A 61.987 61.987 0 0 1 154.982 58.431 A 53.809 53.809 0 0 1 155.444 59.106 A 22.403 22.403 0 0 1 156.262 60.413 A 16.524 16.524 0 0 1 156.909 61.646 Q 157.296 62.469 157.416 63.143 A 3.288 3.288 0 0 1 157.471 63.721 L 157.471 64.063 A 22.495 22.495 0 0 1 161.668 63.534 A 20.622 20.622 0 0 1 162.256 63.525 Q 163.867 63.525 165.454 63.696 Q 167.041 63.867 168.604 64.063 L 168.604 64.502 L 168.604 64.746 A 4.598 4.598 0 0 0 168.644 65.374 Q 168.69 65.706 168.787 65.982 A 2.265 2.265 0 0 0 168.945 66.333 A 5.57 5.57 0 0 0 169.487 67.135 A 4.894 4.894 0 0 0 169.727 67.407 A 19.353 19.353 0 0 1 170.142 67.859 A 14.941 14.941 0 0 1 170.508 68.286 A 1.547 1.547 0 0 1 170.758 68.704 A 1.317 1.317 0 0 1 170.85 69.189 A 3.038 3.038 0 0 1 170.83 69.545 Q 170.787 69.914 170.644 70.135 A 0.806 0.806 0 0 1 170.605 70.19 Q 170.361 70.508 170.044 70.752 A 6.347 6.347 0 0 0 169.71 71.027 A 5.079 5.079 0 0 0 169.482 71.24 A 0.766 0.766 0 0 0 169.299 71.545 Q 169.238 71.729 169.238 71.973 A 2.824 2.824 0 0 0 169.242 72.126 Q 169.25 72.268 169.273 72.363 A 0.618 0.618 0 0 0 169.287 72.412 A 19.046 19.046 0 0 1 167.249 72.814 A 24.408 24.408 0 0 1 165.503 72.998 A 62.011 62.011 0 0 1 163.507 73.108 A 48.172 48.172 0 0 1 161.67 73.145 A 1.262 1.262 0 0 1 161.488 73.13 Q 161.3 73.103 161.06 73.022 A 5.398 5.398 0 0 1 160.352 72.73 A 1.79 1.79 0 0 1 159.972 72.478 A 1.564 1.564 0 0 1 159.79 72.29 A 1.067 1.067 0 0 1 159.648 72.068 A 0.792 0.792 0 0 1 159.57 71.729 A 8.075 8.075 0 0 1 158.831 71.935 A 10.135 10.135 0 0 1 158.276 72.046 Q 157.568 72.168 156.909 72.363 A 5.643 5.643 0 0 0 155.664 72.9 A 2.951 2.951 0 0 0 154.688 73.828 A 6.773 6.773 0 0 0 154.25 73.711 Q 153.741 73.591 153.049 73.493 A 21.011 21.011 0 0 0 153.003 73.486 A 77.993 77.993 0 0 1 151.923 73.328 A 92.537 92.537 0 0 1 150.781 73.145 Q 149.609 72.949 148.438 72.681 A 13.274 13.274 0 0 1 147.189 72.332 A 10.655 10.655 0 0 1 146.313 71.997 A 6.254 6.254 0 0 1 145.496 71.57 A 4.566 4.566 0 0 1 144.751 70.996 A 1.938 1.938 0 0 1 144.141 69.586 A 2.493 2.493 0 0 1 144.141 69.531 A 4.058 4.058 0 0 1 144.144 69.387 Q 144.152 69.162 144.182 68.771 A 35.788 35.788 0 0 1 144.189 68.677 A 8.521 8.521 0 0 1 144.365 67.521 A 9.397 9.397 0 0 1 144.385 67.432 A 7.029 7.029 0 0 1 144.55 66.834 A 5.231 5.231 0 0 1 144.751 66.309 Q 144.971 65.82 145.264 65.82 A 2.432 2.432 0 0 1 146.216 66.016 A 2.532 2.532 0 0 0 147.142 66.21 A 2.913 2.913 0 0 0 147.217 66.211 Z M 378.564 66.211 L 379.053 66.162 L 379.102 65.772 A 1.119 1.119 0 0 0 379.076 65.523 Q 379.026 65.305 378.882 65.161 A 1.052 1.052 0 0 0 378.465 64.908 A 1.336 1.336 0 0 0 378.32 64.868 A 3.254 3.254 0 0 0 377.637 64.795 L 377.002 64.795 A 3.027 3.027 0 0 0 377.832 63.281 A 8.08 8.08 0 0 0 378.018 61.938 A 7.201 7.201 0 0 0 378.027 61.572 Q 378.027 60.693 377.808 59.546 Q 377.588 58.398 377.1 57.324 A 8.257 8.257 0 0 0 376.213 55.809 A 7.425 7.425 0 0 0 375.903 55.42 A 3.434 3.434 0 0 0 375.035 54.679 A 3.062 3.062 0 0 0 374.219 54.346 A 19.284 19.284 0 0 0 373.836 53.566 A 23.964 23.964 0 0 0 373.535 53.003 A 7.346 7.346 0 0 0 372.632 51.709 A 4.802 4.802 0 0 0 371.46 50.732 Q 370.801 50.342 370.02 50.342 Q 369.249 50.342 368.102 51.056 A 9.965 9.965 0 0 0 367.773 51.27 A 22.497 22.497 0 0 0 365.356 53.172 A 24.899 24.899 0 0 0 365.112 53.394 A 30.595 30.595 0 0 0 363.904 54.572 A 23.362 23.362 0 0 0 362.866 55.713 A 13.579 13.579 0 0 0 362.543 56.108 Q 362.063 56.719 361.949 57.049 A 0.558 0.558 0 0 0 361.914 57.227 A 3.55 3.55 0 0 0 362.061 58.252 A 3.55 3.55 0 0 1 362.207 59.277 A 3.494 3.494 0 0 1 362.06 60.304 A 3.139 3.139 0 0 1 361.865 60.791 A 4.665 4.665 0 0 1 360.986 62.012 A 2.543 2.543 0 0 0 361.153 62.598 A 1.764 1.764 0 0 0 361.719 63.33 A 3.836 3.836 0 0 0 362.628 63.83 A 4.757 4.757 0 0 0 363.11 63.989 A 9.317 9.317 0 0 0 364.746 64.282 A 14.244 14.244 0 0 1 365.54 64.374 A 10.944 10.944 0 0 1 366.26 64.502 A 5.444 5.444 0 0 0 366.469 64.699 Q 366.728 64.932 367.114 65.234 A 11.826 11.826 0 0 1 368.188 66.187 A 9.149 9.149 0 0 1 368.889 66.969 A 8.039 8.039 0 0 1 369.092 67.236 Q 369.482 67.773 369.482 68.213 Q 369.482 68.475 369.377 68.624 A 0.448 0.448 0 0 1 369.116 68.799 Q 368.75 68.897 368.311 68.945 A 3.275 3.275 0 0 0 367.778 69.048 A 2.769 2.769 0 0 0 367.505 69.141 Q 367.147 69.284 367.139 69.754 A 1.271 1.271 0 0 0 367.139 69.775 A 2.012 2.012 0 0 0 367.155 70.037 Q 367.173 70.177 367.213 70.296 A 1.136 1.136 0 0 0 367.236 70.361 Q 364.893 70.459 362.671 70.825 A 63.88 63.88 0 0 0 358.203 71.729 A 9.169 9.169 0 0 1 356.348 72.022 A 35.765 35.765 0 0 1 354.468 72.07 A 38.622 38.622 0 0 0 352.539 72.119 Q 351.563 72.168 350.635 72.363 A 6.508 6.508 0 0 1 349.268 72.51 A 5.057 5.057 0 0 1 347.168 72.07 Q 346.191 71.631 345.459 70.85 Q 344.727 70.068 344.312 69.092 A 5.294 5.294 0 0 1 343.897 67.062 A 6.043 6.043 0 0 1 343.896 66.992 A 3.574 3.574 0 0 1 344.507 64.99 A 1.991 1.991 0 0 1 345.97 64.09 A 3.052 3.052 0 0 1 346.387 64.063 A 0.703 0.703 0 0 1 346.933 64.314 A 1.05 1.05 0 0 1 347.021 64.429 A 0.941 0.941 0 0 0 347.202 64.633 A 0.69 0.69 0 0 0 347.656 64.795 A 0.342 0.342 0 0 0 347.876 64.714 Q 347.941 64.661 347.998 64.575 Q 348.124 64.386 348.268 64.143 A 13.873 13.873 0 0 0 348.315 64.063 A 1.939 1.939 0 0 1 348.624 63.667 A 2.353 2.353 0 0 1 348.779 63.525 A 1.547 1.547 0 0 1 349.203 63.277 A 2.031 2.031 0 0 1 349.512 63.184 A 5.355 5.355 0 0 0 350.656 62.896 A 4.059 4.059 0 0 0 351.782 62.256 Q 352.686 61.523 353.174 60.474 A 8.348 8.348 0 0 0 353.774 58.639 A 9.623 9.623 0 0 0 353.857 58.179 A 15.892 15.892 0 0 0 354.053 55.713 Q 354.053 54.736 353.833 53.833 Q 353.613 52.93 353.613 52.002 A 7.601 7.601 0 0 1 353.853 50.139 A 9.14 9.14 0 0 1 354.077 49.39 A 8.383 8.383 0 0 0 354.475 47.593 A 10.698 10.698 0 0 0 354.541 46.387 Q 354.541 44.092 354.272 41.87 Q 354.004 39.648 354.004 37.354 A 31.378 31.378 0 0 1 354.199 33.887 A 31.378 31.378 0 0 0 354.395 30.42 A 4.202 4.202 0 0 0 354.294 29.491 A 3.783 3.783 0 0 0 354.224 29.224 A 16.783 16.783 0 0 0 353.906 28.278 A 15.171 15.171 0 0 0 353.857 28.149 A 102.77 102.77 0 0 1 353.668 27.649 A 87.907 87.907 0 0 1 353.491 27.173 A 2.734 2.734 0 0 1 353.32 26.221 A 5.859 5.859 0 0 1 353.639 24.336 A 6.599 6.599 0 0 1 353.662 24.268 A 5.923 5.923 0 0 0 354.001 22.498 A 5.583 5.583 0 0 0 354.004 22.314 Q 354.004 21.191 353.638 20.166 A 6.339 6.339 0 0 1 353.271 18.018 Q 353.271 17.188 353.442 16.333 A 8.817 8.817 0 0 0 353.613 14.6 A 6.525 6.525 0 0 0 353.547 13.633 Q 353.473 13.14 353.316 12.742 A 2.688 2.688 0 0 0 352.856 11.963 A 4.489 4.489 0 0 0 350.977 10.669 A 8.476 8.476 0 0 0 349.329 10.248 A 10.202 10.202 0 0 0 348.511 10.156 A 23.035 23.035 0 0 1 347.07 10.008 A 18.038 18.038 0 0 1 346.045 9.839 Q 344.942 9.623 344.192 9.101 A 3.672 3.672 0 0 1 344.165 9.082 Q 343.461 8.583 343.412 7.493 A 3.713 3.713 0 0 1 343.408 7.324 A 5.185 5.185 0 0 1 343.497 6.334 Q 343.614 5.737 343.881 5.261 A 3.038 3.038 0 0 1 344.043 5.005 A 4.284 4.284 0 0 1 345.654 3.613 A 6.902 6.902 0 0 1 347.441 3.015 A 7.966 7.966 0 0 1 347.803 2.954 Q 348.975 2.783 350.098 2.783 A 184.525 184.525 0 0 1 351.599 3.113 Q 353.059 3.44 354.156 3.715 A 53.252 53.252 0 0 1 355.078 3.955 A 61.497 61.497 0 0 1 355.925 4.19 Q 356.74 4.423 357.315 4.617 A 13.898 13.898 0 0 1 357.788 4.785 Q 358.691 5.127 358.911 5.322 A 3.16 3.16 0 0 1 359.037 5.44 Q 359.155 5.557 359.222 5.654 A 0.858 0.858 0 0 1 359.229 5.664 A 7.003 7.003 0 0 1 359.388 6.228 Q 359.583 7.037 359.741 8.301 A 73.935 73.935 0 0 1 360.03 11.034 A 84.285 84.285 0 0 1 360.107 11.987 A 110.471 110.471 0 0 1 360.286 14.798 A 97.75 97.75 0 0 1 360.327 15.698 A 144.679 144.679 0 0 1 360.359 16.533 Q 360.4 17.693 360.4 18.352 A 25.435 25.435 0 0 1 360.4 18.359 Q 360.4 19.678 360.01 20.874 Q 359.619 22.07 359.619 23.34 A 9.466 9.466 0 0 0 359.985 25.977 Q 360.352 27.246 360.449 28.613 Q 360.498 29.492 360.522 30.347 A 60.699 60.699 0 0 1 360.547 32.08 A 139.805 139.805 0 0 1 360.522 34.668 A 142.405 142.405 0 0 0 360.498 37.305 A 67.843 67.843 0 0 0 360.596 40.967 A 34.035 34.035 0 0 0 360.986 44.58 A 1.588 1.588 0 0 0 361.17 44.641 Q 361.264 44.666 361.35 44.674 A 0.841 0.841 0 0 0 361.426 44.678 L 361.865 44.678 A 3.052 3.052 0 0 0 362.599 44.594 A 2.228 2.228 0 0 0 363.477 44.165 A 7.369 7.369 0 0 0 364.564 43.075 A 8.204 8.204 0 0 0 364.648 42.969 A 70.35 70.35 0 0 1 365.735 41.621 A 76.092 76.092 0 0 1 365.771 41.577 A 3.955 3.955 0 0 1 367.236 40.479 A 5.141 5.141 0 0 0 369.214 39.038 A 30.546 30.546 0 0 0 370.752 37.061 A 22.829 22.829 0 0 1 372.29 35.132 A 5.382 5.382 0 0 1 374.268 33.74 A 2.24 2.24 0 0 0 374.898 33.37 Q 375.415 32.928 375.479 32.197 A 2.442 2.442 0 0 0 375.488 31.982 A 5.392 5.392 0 0 0 375.293 30.542 A 13.945 13.945 0 0 0 374.829 29.15 Q 374.561 28.467 374.365 27.759 A 5.392 5.392 0 0 1 374.17 26.318 L 374.219 25.781 L 374.609 25.83 L 374.756 25.83 A 3.146 3.146 0 0 0 375.146 25.806 Q 375.314 25.785 375.338 25.638 A 0.325 0.325 0 0 0 375.342 25.586 A 1.617 1.617 0 0 1 375.098 24.739 A 1.934 1.934 0 0 1 375.098 24.707 A 2.275 2.275 0 0 1 375.115 24.413 Q 375.157 24.097 375.296 23.931 A 0.494 0.494 0 0 1 375.415 23.828 A 1.132 1.132 0 0 1 375.697 23.707 Q 375.835 23.668 376.002 23.649 A 2.872 2.872 0 0 1 376.318 23.633 A 5.659 5.659 0 0 1 378.394 24.023 Q 379.395 24.414 380.469 24.414 A 4.997 4.997 0 0 0 381.955 24.195 A 4.751 4.751 0 0 0 381.958 24.194 A 30.116 30.116 0 0 0 383.398 23.706 A 30.116 30.116 0 0 1 384.839 23.218 Q 385.547 22.998 386.328 22.998 A 9.911 9.911 0 0 1 388.916 23.34 A 9.911 9.911 0 0 0 391.504 23.682 Q 392.871 23.682 394.189 23.291 Q 395.508 22.9 396.924 22.9 Q 397.13 22.9 397.475 23.005 A 4.931 4.931 0 0 1 397.607 23.047 A 4.472 4.472 0 0 1 398.462 23.438 A 4.492 4.492 0 0 1 398.976 23.788 A 3.827 3.827 0 0 1 399.194 23.975 A 1.371 1.371 0 0 1 399.351 24.144 Q 399.427 24.242 399.466 24.339 A 0.58 0.58 0 0 1 399.512 24.561 A 0.814 0.814 0 0 1 399.412 24.784 A 0.628 0.628 0 0 1 399.121 25.024 A 0.854 0.854 0 0 0 399.002 25.085 Q 398.852 25.177 398.831 25.302 A 0.248 0.248 0 0 0 398.828 25.342 Q 398.828 25.576 399.054 25.879 A 2.09 2.09 0 0 0 399.072 25.903 A 13.2 13.2 0 0 0 399.335 26.233 A 17.568 17.568 0 0 0 399.634 26.587 A 5.272 5.272 0 0 1 400.195 27.368 Q 400.439 27.783 400.439 28.223 A 0.799 0.799 0 0 1 400.278 28.687 Q 400.078 28.971 399.628 29.246 A 4.94 4.94 0 0 1 399.268 29.443 A 14.699 14.699 0 0 1 398.004 29.999 A 19.973 19.973 0 0 1 396.558 30.493 A 28.318 28.318 0 0 1 394.107 31.118 A 25.305 25.305 0 0 1 393.555 31.226 Q 392.09 31.494 391.504 31.494 A 4.632 4.632 0 0 1 390.968 31.465 Q 390.334 31.391 389.966 31.128 Q 389.526 30.814 389.104 30.769 A 1.322 1.322 0 0 0 388.965 30.762 A 2.662 2.662 0 0 0 388.405 30.827 Q 387.783 30.962 386.963 31.372 A 17.606 17.606 0 0 0 385.702 32.072 Q 385.048 32.47 384.351 32.959 A 31.391 31.391 0 0 0 382.338 34.502 A 36.679 36.679 0 0 0 381.543 35.181 A 40.091 40.091 0 0 0 379.878 36.728 A 33.56 33.56 0 0 0 378.98 37.647 A 22.152 22.152 0 0 0 377.945 38.824 A 16.092 16.092 0 0 0 377.075 39.99 Q 376.438 40.936 376.337 41.605 A 1.62 1.62 0 0 0 376.318 41.846 A 7.732 7.732 0 0 1 376.074 43.359 A 5.849 5.849 0 0 0 375.879 44.873 A 1.737 1.737 0 0 0 375.962 45.42 A 1.446 1.446 0 0 0 376.318 45.996 A 5.502 5.502 0 0 0 377.026 46.59 A 6.492 6.492 0 0 0 377.344 46.802 A 21.382 21.382 0 0 1 378.236 47.392 A 24.272 24.272 0 0 1 378.54 47.607 A 2.833 2.833 0 0 1 379.204 48.268 A 2.594 2.594 0 0 1 379.443 48.682 A 9.817 9.817 0 0 0 379.835 49.452 Q 380.212 50.125 380.762 50.903 A 93.604 93.604 0 0 0 381.683 52.185 A 114.479 114.479 0 0 0 382.69 53.54 Q 383.74 54.932 384.814 56.348 A 61.987 61.987 0 0 1 386.33 58.431 A 53.809 53.809 0 0 1 386.792 59.106 A 22.403 22.403 0 0 1 387.61 60.413 A 16.524 16.524 0 0 1 388.257 61.646 Q 388.644 62.469 388.764 63.143 A 3.288 3.288 0 0 1 388.818 63.721 L 388.818 64.063 A 22.495 22.495 0 0 1 393.016 63.534 A 20.622 20.622 0 0 1 393.604 63.525 Q 395.215 63.525 396.802 63.696 Q 398.389 63.867 399.951 64.063 L 399.951 64.502 L 399.951 64.746 A 4.598 4.598 0 0 0 399.992 65.374 Q 400.037 65.706 400.135 65.982 A 2.265 2.265 0 0 0 400.293 66.333 A 5.57 5.57 0 0 0 400.835 67.135 A 4.894 4.894 0 0 0 401.074 67.407 A 19.353 19.353 0 0 1 401.489 67.859 A 14.941 14.941 0 0 1 401.855 68.286 A 1.547 1.547 0 0 1 402.106 68.704 A 1.317 1.317 0 0 1 402.197 69.189 A 3.038 3.038 0 0 1 402.178 69.545 Q 402.134 69.914 401.992 70.135 A 0.806 0.806 0 0 1 401.953 70.19 Q 401.709 70.508 401.392 70.752 A 6.347 6.347 0 0 0 401.058 71.027 A 5.079 5.079 0 0 0 400.83 71.24 A 0.766 0.766 0 0 0 400.647 71.545 Q 400.586 71.729 400.586 71.973 A 2.824 2.824 0 0 0 400.59 72.126 Q 400.598 72.268 400.621 72.363 A 0.618 0.618 0 0 0 400.635 72.412 A 19.046 19.046 0 0 1 398.596 72.814 A 24.408 24.408 0 0 1 396.851 72.998 A 62.011 62.011 0 0 1 394.855 73.108 A 48.172 48.172 0 0 1 393.018 73.145 A 1.262 1.262 0 0 1 392.835 73.13 Q 392.648 73.103 392.407 73.022 A 5.398 5.398 0 0 1 391.699 72.73 A 1.79 1.79 0 0 1 391.32 72.478 A 1.564 1.564 0 0 1 391.138 72.29 A 1.067 1.067 0 0 1 390.995 72.068 A 0.792 0.792 0 0 1 390.918 71.729 A 8.075 8.075 0 0 1 390.179 71.935 A 10.135 10.135 0 0 1 389.624 72.046 Q 388.916 72.168 388.257 72.363 A 5.643 5.643 0 0 0 387.012 72.9 A 2.951 2.951 0 0 0 386.035 73.828 A 6.773 6.773 0 0 0 385.598 73.711 Q 385.089 73.591 384.396 73.493 A 21.011 21.011 0 0 0 384.351 73.486 A 77.993 77.993 0 0 1 383.27 73.328 A 92.537 92.537 0 0 1 382.129 73.145 Q 380.957 72.949 379.785 72.681 A 13.274 13.274 0 0 1 378.536 72.332 A 10.655 10.655 0 0 1 377.661 71.997 A 6.254 6.254 0 0 1 376.844 71.57 A 4.566 4.566 0 0 1 376.099 70.996 A 1.938 1.938 0 0 1 375.489 69.586 A 2.493 2.493 0 0 1 375.488 69.531 A 4.058 4.058 0 0 1 375.491 69.387 Q 375.499 69.162 375.53 68.771 A 35.788 35.788 0 0 1 375.537 68.677 A 8.521 8.521 0 0 1 375.712 67.521 A 9.397 9.397 0 0 1 375.732 67.432 A 7.029 7.029 0 0 1 375.897 66.834 A 5.231 5.231 0 0 1 376.099 66.309 Q 376.318 65.82 376.611 65.82 A 2.432 2.432 0 0 1 377.563 66.016 A 2.532 2.532 0 0 0 378.489 66.21 A 2.913 2.913 0 0 0 378.564 66.211 Z M 210.303 24.414 L 210.254 24.414 Q 210.986 24.512 211.646 24.829 Q 212.305 25.147 213.037 25.244 A 7.337 7.337 0 0 0 213.824 26.056 Q 214.242 26.428 214.751 26.784 A 11.899 11.899 0 0 0 214.819 26.831 A 40.581 40.581 0 0 1 216.968 28.418 A 11.546 11.546 0 0 1 218.273 29.617 A 10.045 10.045 0 0 1 218.774 30.2 Q 219.531 31.152 219.531 32.373 A 3.146 3.146 0 0 1 219.507 32.764 Q 219.482 32.959 219.434 33.203 L 219.629 32.959 A 0.886 0.886 0 0 1 219.771 33.095 Q 219.833 33.169 219.893 33.263 A 2.206 2.206 0 0 1 219.995 33.447 A 6.105 6.105 0 0 1 220.197 33.897 A 7.545 7.545 0 0 1 220.313 34.204 Q 220.459 34.619 220.557 35.034 A 36.877 36.877 0 0 1 220.602 35.231 Q 220.667 35.51 220.703 35.693 A 3.017 3.017 0 0 0 221.753 36.719 A 2.892 2.892 0 0 1 222.803 37.793 A 1.644 1.644 0 0 0 222.332 38.78 A 2.26 2.26 0 0 0 222.314 39.063 A 4.15 4.15 0 0 0 222.651 40.686 A 4.721 4.721 0 0 0 222.656 40.698 A 4.166 4.166 0 0 1 222.997 42.256 A 4.025 4.025 0 0 1 222.998 42.334 A 17.791 17.791 0 0 1 222.929 43.93 A 15.985 15.985 0 0 1 222.9 44.214 A 17.227 17.227 0 0 0 222.805 45.821 A 19.225 19.225 0 0 0 222.803 46.094 A 1.517 1.517 0 0 1 222.725 46.593 A 1.245 1.245 0 0 1 222.241 47.217 A 7.377 7.377 0 0 1 221.023 47.899 A 7.518 7.518 0 0 1 221.021 47.9 A 18.374 18.374 0 0 0 220.318 48.23 A 14.342 14.342 0 0 0 219.824 48.486 A 1.234 1.234 0 0 0 219.544 48.69 A 0.847 0.847 0 0 0 219.287 49.316 A 0.467 0.467 0 0 1 219.264 49.471 Q 219.185 49.697 218.837 49.683 A 1.083 1.083 0 0 1 218.823 49.683 Q 218.408 49.661 218.13 49.658 A 7.698 7.698 0 0 0 218.066 49.658 A 17.365 17.365 0 0 1 213.794 49.121 Q 211.67 48.584 209.57 48.584 A 32.416 32.416 0 0 0 205.029 48.901 A 32.416 32.416 0 0 1 200.488 49.219 A 58.626 58.626 0 0 1 197.095 49.121 A 58.626 58.626 0 0 0 193.701 49.023 A 3.967 3.967 0 0 0 193.452 49.033 Q 193.087 49.056 192.454 49.139 A 41.646 41.646 0 0 0 192.041 49.194 A 42.55 42.55 0 0 0 190.305 49.476 A 49.778 49.778 0 0 0 189.478 49.634 A 28.575 28.575 0 0 0 187.299 50.157 A 25.677 25.677 0 0 0 186.914 50.269 Q 185.693 50.635 185.205 50.977 Q 185.161 51.197 185.157 51.577 A 7.411 7.411 0 0 0 185.156 51.66 A 8.716 8.716 0 0 0 185.63 54.437 A 11.936 11.936 0 0 0 186.499 56.397 A 17.097 17.097 0 0 0 189.701 60.524 A 19.374 19.374 0 0 0 190.039 60.84 A 20.491 20.491 0 0 0 194.971 64.16 Q 197.705 65.479 200.488 65.479 A 41.685 41.685 0 0 1 203.687 65.601 A 10.853 10.853 0 0 1 206.787 66.309 A 14.368 14.368 0 0 0 208.996 64.998 A 13.234 13.234 0 0 0 209.204 64.844 A 31.186 31.186 0 0 0 211.328 63.086 A 55.303 55.303 0 0 0 213.33 61.182 A 114.707 114.707 0 0 1 215.332 59.229 Q 215.513 59.047 216.177 58.887 A 7.559 7.559 0 0 1 216.284 58.862 Q 217.041 58.691 217.92 58.569 A 37.141 37.141 0 0 1 219.197 58.414 A 32.296 32.296 0 0 1 219.605 58.374 A 38.997 38.997 0 0 1 219.954 58.344 Q 220.479 58.301 220.703 58.301 A 6.524 6.524 0 0 1 222.274 58.485 A 5.85 5.85 0 0 1 222.803 58.643 Q 223.096 59.766 223.096 60.84 Q 223.096 62.158 222.681 63.086 A 6.323 6.323 0 0 1 221.606 64.746 A 10.062 10.062 0 0 1 220.355 65.913 A 11.383 11.383 0 0 1 220.093 66.113 A 38.527 38.527 0 0 0 218.797 67.12 A 42.913 42.913 0 0 0 218.359 67.48 A 10.589 10.589 0 0 1 217.887 67.864 Q 217.66 68.037 217.451 68.172 A 4.797 4.797 0 0 1 217.139 68.359 A 9.019 9.019 0 0 1 216.412 68.716 A 7.662 7.662 0 0 1 216.089 68.848 A 37.976 37.976 0 0 1 215.292 69.141 A 42.796 42.796 0 0 1 215.015 69.238 Q 214.585 69.388 214.055 69.623 A 19.628 19.628 0 0 0 213.721 69.775 A 26.365 26.365 0 0 0 213.033 70.131 Q 212.698 70.311 212.411 70.48 A 12.974 12.974 0 0 0 212.085 70.679 A 18.196 18.196 0 0 1 210.767 71.436 A 7.356 7.356 0 0 1 209.662 71.895 A 8.459 8.459 0 0 1 209.326 71.997 Q 208.545 72.217 207.373 72.363 A 84.93 84.93 0 0 0 203.442 72.949 A 23.042 23.042 0 0 1 199.512 73.291 A 1.969 1.969 0 0 1 198.976 73.214 A 2.47 2.47 0 0 1 198.706 73.12 A 10.353 10.353 0 0 0 198.275 72.955 Q 198.061 72.877 197.823 72.8 A 16.823 16.823 0 0 0 197.754 72.778 A 19.96 19.96 0 0 0 197.186 72.607 A 26.496 26.496 0 0 0 196.558 72.437 A 4.875 4.875 0 0 0 195.954 72.323 Q 195.647 72.283 195.297 72.271 A 9.306 9.306 0 0 0 194.971 72.266 A 5.306 5.306 0 0 1 194.359 72.233 Q 194.06 72.198 193.811 72.127 A 2.324 2.324 0 0 1 193.408 71.973 A 5.428 5.428 0 0 1 192.552 71.444 A 4.877 4.877 0 0 1 192.358 71.289 A 20.383 20.383 0 0 1 191.709 70.717 A 23.834 23.834 0 0 1 191.406 70.435 Q 190.948 70 190.233 69.672 A 6.193 6.193 0 0 0 190.137 69.629 A 21.009 21.009 0 0 1 187.157 68.001 A 16.77 16.77 0 0 1 185.156 66.455 Q 183.105 64.6 181.641 62.305 A 25.275 25.275 0 0 1 179.199 57.324 A 48.994 48.994 0 0 1 177.539 51.709 Q 177.002 49.658 177.002 47.607 A 10.121 10.121 0 0 1 178.271 42.627 A 8.584 8.584 0 0 1 177.877 41.12 A 7.022 7.022 0 0 1 177.783 39.99 A 4.732 4.732 0 0 1 177.826 39.397 Q 177.907 38.763 178.142 37.87 A 24.003 24.003 0 0 1 178.32 37.231 A 26.609 26.609 0 0 1 179.503 34.008 A 29.592 29.592 0 0 1 179.712 33.545 A 25.759 25.759 0 0 1 180.837 31.369 A 21.209 21.209 0 0 1 181.567 30.2 A 9.46 9.46 0 0 1 182.091 29.49 Q 182.802 28.62 183.447 28.369 A 11.929 11.929 0 0 0 183.763 28.252 Q 184.198 28.082 184.399 27.954 A 0.409 0.409 0 0 0 184.538 27.793 Q 184.662 27.556 184.668 27.049 A 4.386 4.386 0 0 0 184.668 27.002 A 1.211 1.211 0 0 1 185.056 26.094 A 1.565 1.565 0 0 1 185.132 26.025 A 3.456 3.456 0 0 1 185.806 25.585 A 4.365 4.365 0 0 1 186.255 25.391 A 20.85 20.85 0 0 1 187.573 24.951 A 12.677 12.677 0 0 0 188.037 24.805 Q 188.261 24.729 188.451 24.653 A 5.992 5.992 0 0 0 188.672 24.561 A 42.721 42.721 0 0 1 190.81 23.589 A 34.58 34.58 0 0 1 192.114 23.071 Q 193.75 22.461 195.386 22.046 Q 197.021 21.631 198.779 21.436 A 31.811 31.811 0 0 1 201.072 21.268 A 38.307 38.307 0 0 1 202.539 21.24 A 7.605 7.605 0 0 1 204.639 21.533 A 12.089 12.089 0 0 1 206.616 22.29 A 23.545 23.545 0 0 1 208.496 23.315 Q 209.424 23.877 210.303 24.414 Z M 240.771 69.873 L 240.674 69.238 L 240.381 68.897 A 1.201 1.201 0 0 0 239.937 68.977 A 1.114 1.114 0 0 0 239.624 69.165 A 4.175 4.175 0 0 0 239.038 69.775 A 4.175 4.175 0 0 1 238.452 70.386 A 1.118 1.118 0 0 1 237.908 70.633 A 1.543 1.543 0 0 1 237.646 70.654 Q 237.109 70.654 236.621 70.483 A 0.673 0.673 0 0 1 236.181 70.007 Q 236.142 69.874 236.135 69.708 A 1.792 1.792 0 0 1 236.133 69.629 A 2.239 2.239 0 0 1 236.191 69.107 A 1.821 1.821 0 0 1 236.353 68.677 A 1.887 1.887 0 0 0 236.554 68.025 A 2.391 2.391 0 0 0 236.572 67.725 A 5.015 5.015 0 0 0 236.426 66.504 A 4.816 4.816 0 0 1 236.279 65.332 A 6.003 6.003 0 0 1 236.387 64.185 A 5.555 5.555 0 0 1 236.401 64.111 Q 236.523 63.525 236.523 62.891 A 5.075 5.075 0 0 0 236.304 61.426 Q 236.084 60.693 235.84 59.985 Q 235.596 59.277 235.376 58.569 Q 235.156 57.861 235.156 57.08 A 4.508 4.508 0 0 1 235.596 55.127 A 4.508 4.508 0 0 0 236.035 53.174 A 1.969 1.969 0 0 0 236.023 52.944 Q 236 52.753 235.938 52.612 A 5.058 5.058 0 0 0 235.84 52.405 A 3.747 3.747 0 0 0 235.742 52.222 A 2.022 2.022 0 0 1 235.669 52.08 Q 235.633 52.003 235.596 51.912 A 4.319 4.319 0 0 1 235.547 51.782 A 1.241 1.241 0 0 1 235.498 51.599 Q 235.458 51.4 235.451 51.112 A 5.349 5.349 0 0 1 235.449 50.977 A 26.782 26.782 0 0 1 235.459 50.277 A 32.441 32.441 0 0 1 235.474 49.829 Q 235.496 49.267 235.498 49.016 A 5.799 5.799 0 0 0 235.498 48.975 A 7.701 7.701 0 0 0 235.352 47.461 A 7.701 7.701 0 0 1 235.205 45.947 Q 235.205 44.678 235.547 43.408 Q 235.889 42.139 235.889 40.869 A 21.986 21.986 0 0 0 235.62 37.451 Q 235.352 35.742 235.352 33.984 A 4.865 4.865 0 0 1 235.522 32.715 A 18.907 18.907 0 0 1 235.913 31.445 Q 236.133 30.811 236.304 30.2 A 4.699 4.699 0 0 0 236.471 29.097 A 5.349 5.349 0 0 0 236.475 28.906 A 16.995 16.995 0 0 0 236.279 26.318 A 166.935 166.935 0 0 0 235.864 23.755 Q 235.645 22.461 235.474 21.167 Q 235.303 19.873 235.303 18.555 A 47.711 47.711 0 0 1 235.327 17.017 A 47.711 47.711 0 0 0 235.352 15.479 A 11.282 11.282 0 0 0 235.29 14.255 Q 235.132 12.812 234.57 11.987 A 4.7 4.7 0 0 0 233.383 10.766 A 4.378 4.378 0 0 0 232.593 10.327 A 7.886 7.886 0 0 0 230.029 9.717 A 25.099 25.099 0 0 1 228.387 9.547 A 20.973 20.973 0 0 1 227.466 9.399 Q 226.27 9.18 225.488 8.569 A 1.807 1.807 0 0 1 224.928 7.799 Q 224.804 7.49 224.749 7.1 A 4.757 4.757 0 0 1 224.707 6.445 Q 224.707 5.289 225.233 4.545 A 2.474 2.474 0 0 1 225.391 4.346 Q 226.074 3.564 227.075 3.149 A 7.548 7.548 0 0 1 228.815 2.668 A 8.695 8.695 0 0 1 229.248 2.612 A 23.992 23.992 0 0 1 230.371 2.521 A 18.105 18.105 0 0 1 231.396 2.49 A 27.406 27.406 0 0 1 236.426 2.954 Q 238.916 3.418 241.455 3.516 Q 242.041 3.662 242.188 4.053 Q 242.315 4.394 242.276 4.884 A 3.351 3.351 0 0 1 242.261 5.029 Q 242.188 5.615 242.041 6.348 A 7.612 7.612 0 0 0 241.906 7.451 A 8.958 8.958 0 0 0 241.895 7.91 Q 241.895 9.522 241.821 11.133 A 75.47 75.47 0 0 0 241.766 12.671 A 55.796 55.796 0 0 0 241.748 14.063 Q 241.748 14.424 241.765 15.249 A 223.552 223.552 0 0 0 241.772 15.625 Q 241.797 16.744 241.87 18.129 A 105.093 105.093 0 0 0 241.87 18.14 A 48.289 48.289 0 0 0 242.017 20.122 A 56.462 56.462 0 0 0 242.114 21.069 A 32.217 32.217 0 0 0 242.31 22.534 A 24.06 24.06 0 0 0 242.554 23.853 A 13.214 13.214 0 0 0 242.772 24.728 Q 242.895 25.154 243.037 25.516 A 6.63 6.63 0 0 0 243.213 25.928 Q 243.41 26.346 243.656 26.553 A 0.81 0.81 0 0 0 244.189 26.758 Q 244.678 26.758 245.093 26.514 A 5.231 5.231 0 0 0 245.776 26.032 A 5.893 5.893 0 0 0 245.898 25.928 A 15.567 15.567 0 0 0 246.655 25.22 A 2.746 2.746 0 0 1 247.246 24.767 A 2.503 2.503 0 0 1 247.461 24.658 A 9.671 9.671 0 0 1 248.938 24.167 A 11.73 11.73 0 0 1 249.731 23.999 Q 250.977 23.779 252.148 23.779 A 1.692 1.692 0 0 0 252.778 23.654 A 2.153 2.153 0 0 0 253.027 23.535 Q 253.467 23.291 253.906 23.022 A 12.422 12.422 0 0 1 254.773 22.54 A 13.567 13.567 0 0 1 254.834 22.51 A 2.34 2.34 0 0 1 255.799 22.268 A 2.749 2.749 0 0 1 255.908 22.266 A 4.22 4.22 0 0 1 257.251 22.485 A 10.884 10.884 0 0 1 258.521 22.998 Q 259.131 23.291 259.79 23.56 Q 260.449 23.828 261.133 23.877 A 91.774 91.774 0 0 1 263.11 24.097 A 7.189 7.189 0 0 1 265.039 24.609 Q 265.433 24.788 265.669 25.02 A 1.32 1.32 0 0 1 265.82 25.195 A 1.824 1.824 0 0 0 266.179 25.567 A 2.43 2.43 0 0 0 266.504 25.781 Q 267.041 26.123 267.529 26.172 L 268.506 26.27 A 4.667 4.667 0 0 1 269.135 26.378 A 5.763 5.763 0 0 1 269.531 26.489 Q 270.068 26.66 270.752 27.197 A 60.781 60.781 0 0 0 271.819 28.09 A 68.16 68.16 0 0 0 272.192 28.394 Q 272.949 29.004 273.608 29.688 Q 274.268 30.371 274.78 31.152 A 4.942 4.942 0 0 1 275.488 32.861 A 31.884 31.884 0 0 0 275.914 34.806 Q 276.171 35.835 276.514 36.963 A 16.394 16.394 0 0 0 277.24 38.918 Q 277.694 39.925 278.254 40.746 A 10.149 10.149 0 0 0 278.271 40.772 A 11.652 11.652 0 0 1 279.565 43.213 A 7.48 7.48 0 0 1 280.078 45.947 Q 280.078 46.777 279.688 47.412 A 1.34 1.34 0 0 1 278.953 47.983 Q 278.727 48.06 278.451 48.086 A 2.937 2.937 0 0 1 278.32 48.096 Q 278.613 49.023 279.199 49.854 A 3.143 3.143 0 0 1 279.785 51.709 A 4.22 4.22 0 0 1 279.565 53.052 A 17.618 17.618 0 0 1 279.077 54.346 Q 278.809 54.98 278.516 55.615 A 6.642 6.642 0 0 0 278.126 56.686 A 6.02 6.02 0 0 0 278.076 56.885 Q 277.873 57.697 277.248 59.066 A 33.964 33.964 0 0 1 276.978 59.644 A 70.649 70.649 0 0 1 275.588 62.382 A 81.451 81.451 0 0 1 275.073 63.33 A 56.255 56.255 0 0 1 273.618 65.822 A 47.995 47.995 0 0 1 272.949 66.87 Q 272.056 68.23 271.399 68.932 A 5.403 5.403 0 0 1 271.143 69.189 Q 270.605 69.678 270.02 69.873 Q 269.434 70.068 268.848 70.166 A 23.88 23.88 0 0 1 267.941 70.299 A 26.629 26.629 0 0 1 267.627 70.337 A 4.499 4.499 0 0 0 266.406 70.654 Q 265.234 71.191 264.185 71.899 Q 263.135 72.607 261.816 72.607 Q 261.279 72.607 260.84 72.363 Q 260.4 72.119 259.985 71.826 Q 259.57 71.533 259.131 71.289 Q 258.691 71.045 258.154 71.045 A 4.439 4.439 0 0 1 257.533 71.359 Q 257.216 71.491 256.843 71.599 A 8.397 8.397 0 0 1 256.543 71.68 Q 255.566 71.924 254.517 72.07 A 22.985 22.985 0 0 1 252.528 72.263 A 21.198 21.198 0 0 1 252.466 72.266 A 48.135 48.135 0 0 1 251.753 72.295 Q 251.19 72.314 250.732 72.314 A 8.983 8.983 0 0 1 248.845 72.126 A 6.407 6.407 0 0 1 246.631 71.216 A 11.65 11.65 0 0 1 244.698 69.596 A 14.932 14.932 0 0 1 243.555 68.262 Q 243.213 68.359 242.822 68.604 A 11.111 11.111 0 0 0 242.09 69.104 A 12.134 12.134 0 0 0 242.041 69.141 Q 241.65 69.434 241.309 69.653 Q 240.967 69.873 240.771 69.873 Z M 57.813 45.703 L 57.813 45.166 A 0.631 0.631 0 0 0 57.786 44.993 Q 57.751 44.868 57.666 44.727 A 4.659 4.659 0 0 0 57.349 44.263 A 4.565 4.565 0 0 0 57.146 44.019 A 3.691 3.691 0 0 0 57.007 43.872 A 2.628 2.628 0 0 0 56.947 43.814 Q 56.827 43.701 56.787 43.701 Q 56.729 43.701 56.706 43.718 A 0.037 0.037 0 0 0 56.689 43.75 Q 56.727 43.416 56.862 42.814 A 25.139 25.139 0 0 1 56.958 42.407 A 31.755 31.755 0 0 1 57.399 40.789 A 35.214 35.214 0 0 1 57.471 40.552 A 41.382 41.382 0 0 1 57.764 39.636 A 33.041 33.041 0 0 1 58.057 38.794 A 7.977 7.977 0 0 1 58.191 38.447 Q 58.401 37.946 58.583 37.755 A 0.685 0.685 0 0 1 58.594 37.744 A 8.386 8.386 0 0 0 59.155 37.231 A 0.901 0.901 0 0 0 59.409 36.72 A 1.262 1.262 0 0 0 59.424 36.523 A 7.31 7.31 0 0 0 59.375 35.669 A 7.31 7.31 0 0 1 59.326 34.814 A 3.643 3.643 0 0 1 59.332 34.596 Q 59.351 34.278 59.432 34.154 A 0.209 0.209 0 0 1 59.473 34.106 A 0.504 0.504 0 0 1 59.675 34.006 Q 59.76 33.984 59.863 33.984 Q 60.107 33.984 60.352 33.911 A 0.485 0.485 0 0 0 60.512 33.824 Q 60.639 33.723 60.767 33.522 A 2.457 2.457 0 0 0 60.84 33.398 A 52.449 52.449 0 0 1 61.38 32.348 A 43.133 43.133 0 0 1 61.694 31.763 A 11.002 11.002 0 0 1 62.417 30.613 A 9.864 9.864 0 0 1 62.598 30.371 Q 63.086 29.736 63.721 29.199 Q 64.315 28.696 65.167 28.236 A 11.975 11.975 0 0 1 65.283 28.174 A 9.759 9.759 0 0 0 66.441 27.405 A 11.339 11.339 0 0 0 66.821 27.1 Q 67.578 26.465 68.359 25.83 A 10.878 10.878 0 0 1 69.52 25.003 A 9.499 9.499 0 0 1 69.946 24.756 A 3.564 3.564 0 0 1 71.68 24.316 Q 72.998 24.316 74.243 23.853 Q 75.488 23.389 76.758 23.145 Q 78.76 22.852 80.737 22.583 A 29.904 29.904 0 0 1 84.766 22.314 A 8.748 8.748 0 0 1 85.677 22.366 Q 86.136 22.414 86.655 22.508 A 19.049 19.049 0 0 1 87.5 22.681 Q 89.111 23.047 90.796 23.633 A 28.589 28.589 0 0 1 93.5 24.726 A 25.714 25.714 0 0 1 93.97 24.951 Q 95.459 25.684 96.338 26.416 L 96.338 26.563 Q 96.338 27.246 96.094 27.954 Q 95.85 28.662 95.85 29.346 L 95.85 29.541 Q 95.85 29.619 95.911 29.635 A 0.144 0.144 0 0 0 95.947 29.639 Q 96.777 29.639 97.534 29.419 A 5.663 5.663 0 0 1 99.121 29.199 A 1.833 1.833 0 0 0 99.23 29.655 A 1.181 1.181 0 0 0 99.854 30.322 Q 100.488 30.615 101.123 30.859 Q 101.709 31.152 102.222 31.909 A 11.141 11.141 0 0 1 102.834 32.932 A 13.706 13.706 0 0 1 103.174 33.618 Q 103.613 34.57 104.028 35.498 A 14.657 14.657 0 0 0 104.336 36.146 Q 104.491 36.45 104.642 36.705 A 6.82 6.82 0 0 0 104.834 37.012 Q 105.222 37.593 105.537 38.391 A 9.814 9.814 0 0 1 105.542 38.403 Q 105.859 39.209 106.079 40.088 Q 106.299 40.967 106.396 41.821 A 15.592 15.592 0 0 1 106.475 42.744 A 12.245 12.245 0 0 1 106.494 43.408 Q 106.494 44.252 106.221 44.859 A 2.471 2.471 0 0 1 106.128 45.044 A 7.465 7.465 0 0 1 105.603 45.864 A 6.34 6.34 0 0 1 105.322 46.216 A 33.932 33.932 0 0 0 104.802 46.838 A 27.751 27.751 0 0 0 104.517 47.192 A 1.65 1.65 0 0 0 104.15 48.242 A 1.399 1.399 0 0 0 104.297 48.877 A 2.06 2.06 0 0 0 104.686 49.412 A 2.143 2.143 0 0 0 104.688 49.414 A 0.433 0.433 0 0 1 104.745 49.391 Q 104.841 49.36 105.026 49.329 A 5.414 5.414 0 0 1 105.103 49.316 A 0.638 0.638 0 0 0 105.226 49.286 Q 105.416 49.216 105.42 49.032 A 0.368 0.368 0 0 0 105.42 49.023 L 105.42 48.975 A 0.975 0.975 0 0 0 105.263 48.449 A 1.39 1.39 0 0 0 105.103 48.242 A 1.176 1.176 0 0 1 104.785 47.412 A 0.306 0.306 0 0 1 104.791 47.356 Q 104.809 47.264 104.876 47.11 A 2.83 2.83 0 0 1 104.883 47.095 Q 104.97 46.899 105.096 46.878 A 0.187 0.187 0 0 1 105.127 46.875 A 0.53 0.53 0 0 1 105.383 46.945 Q 105.548 47.035 105.713 47.241 A 9.582 9.582 0 0 1 106.274 48.022 A 11.167 11.167 0 0 1 106.452 48.305 Q 106.596 48.543 106.689 48.73 Q 106.836 49.023 106.836 48.926 L 106.787 48.877 Q 106.836 49.121 106.86 49.292 A 2.419 2.419 0 0 1 106.881 49.515 A 2.913 2.913 0 0 1 106.885 49.658 Q 106.885 50.342 106.665 50.952 A 6.918 6.918 0 0 1 106.448 51.487 Q 106.336 51.733 106.212 51.943 A 4.153 4.153 0 0 1 106.177 52.002 Q 105.971 52.338 105.794 52.589 A 6.301 6.301 0 0 1 105.688 52.734 A 7.696 7.696 0 0 0 105.637 52.804 Q 105.469 53.033 105.469 53.076 Q 105.469 53.535 105.749 54.037 A 3.043 3.043 0 0 0 105.786 54.102 A 2.262 2.262 0 0 1 106.104 55.273 A 0.599 0.599 0 0 1 106.087 55.419 A 0.346 0.346 0 0 1 105.884 55.664 Q 105.664 55.762 105.42 55.762 Q 104.98 55.762 104.688 55.664 Q 104.736 56.592 104.858 57.471 A 13.121 13.121 0 0 1 104.98 59.277 A 11.72 11.72 0 0 1 104.968 59.849 Q 104.922 60.784 104.712 61.108 Q 104.443 61.523 104.15 61.621 Q 103.857 61.719 103.589 61.841 A 0.316 0.316 0 0 0 103.449 61.979 Q 103.333 62.183 103.321 62.644 A 4.177 4.177 0 0 0 103.32 62.744 A 0.863 0.863 0 0 1 103.261 63.041 Q 103.167 63.299 102.918 63.618 A 4.762 4.762 0 0 1 102.71 63.867 A 10.697 10.697 0 0 1 101.958 64.626 A 13.966 13.966 0 0 1 101.245 65.234 A 11.93 11.93 0 0 1 99.712 66.281 A 10.913 10.913 0 0 1 99.487 66.406 Q 98.728 66.817 98.228 66.882 A 1.396 1.396 0 0 1 98.047 66.895 A 0.544 0.544 0 0 1 97.925 66.88 Q 97.824 66.856 97.705 66.797 A 7.026 7.026 0 0 0 97.724 67.304 A 8.461 8.461 0 0 0 97.754 67.627 Q 97.803 68.066 97.803 68.457 A 1.594 1.594 0 0 1 97.776 68.763 Q 97.7 69.15 97.412 69.312 A 6.663 6.663 0 0 1 96.942 69.551 A 8.469 8.469 0 0 1 96.533 69.727 Q 95.801 70.068 95.02 70.728 A 175.9 175.9 0 0 1 93.408 72.07 A 14.222 14.222 0 0 1 92.043 73.068 A 12.725 12.725 0 0 1 91.724 73.267 A 3.568 3.568 0 0 1 90.599 73.713 A 3.274 3.274 0 0 1 89.941 73.779 A 2.774 2.774 0 0 1 88.501 73.389 Q 87.842 72.998 86.963 72.998 A 4.623 4.623 0 0 0 86.39 73.032 Q 86.096 73.068 85.847 73.145 A 2.441 2.441 0 0 0 85.645 73.218 A 8.355 8.355 0 0 0 84.824 73.605 A 7.433 7.433 0 0 0 84.644 73.706 A 10.494 10.494 0 0 1 83.691 74.194 A 2.458 2.458 0 0 1 83.033 74.382 A 3.229 3.229 0 0 1 82.568 74.414 A 5.214 5.214 0 0 1 80.667 74.044 A 6.482 6.482 0 0 1 80.029 73.755 A 18.691 18.691 0 0 0 78.632 73.098 A 14.992 14.992 0 0 0 77.588 72.705 A 7.826 7.826 0 0 0 76.436 72.394 A 8.948 8.948 0 0 0 76.123 72.339 Q 75.342 72.217 74.609 72.07 Q 73.877 71.924 73.218 71.606 Q 72.559 71.289 72.07 70.703 Q 71.045 69.434 69.678 68.604 Q 68.311 67.773 66.895 67.041 Q 65.479 66.309 64.16 65.503 A 8.069 8.069 0 0 1 61.958 63.501 A 9.205 9.205 0 0 1 61.865 63.379 Q 61.133 62.354 60.205 61.157 Q 59.277 59.961 58.472 58.643 Q 57.666 57.324 57.129 55.957 A 7.799 7.799 0 0 1 56.668 54.272 A 6.675 6.675 0 0 1 56.592 53.272 A 9.219 9.219 0 0 1 56.787 51.367 A 99.752 99.752 0 0 1 57.202 49.487 A 99.752 99.752 0 0 0 57.617 47.607 A 9.219 9.219 0 0 0 57.813 45.703 Z M 289.16 45.703 L 289.16 45.166 A 0.631 0.631 0 0 0 289.134 44.993 Q 289.098 44.868 289.014 44.727 A 4.659 4.659 0 0 0 288.696 44.263 A 4.565 4.565 0 0 0 288.493 44.019 A 3.691 3.691 0 0 0 288.355 43.872 A 2.628 2.628 0 0 0 288.295 43.814 Q 288.174 43.701 288.135 43.701 Q 288.077 43.701 288.053 43.718 A 0.037 0.037 0 0 0 288.037 43.75 Q 288.074 43.416 288.21 42.814 A 25.139 25.139 0 0 1 288.306 42.407 A 31.755 31.755 0 0 1 288.746 40.789 A 35.214 35.214 0 0 1 288.818 40.552 A 41.382 41.382 0 0 1 289.111 39.636 A 33.041 33.041 0 0 1 289.404 38.794 A 7.977 7.977 0 0 1 289.539 38.447 Q 289.748 37.946 289.931 37.755 A 0.685 0.685 0 0 1 289.941 37.744 A 8.386 8.386 0 0 0 290.503 37.231 A 0.901 0.901 0 0 0 290.757 36.72 A 1.262 1.262 0 0 0 290.771 36.523 A 7.31 7.31 0 0 0 290.723 35.669 A 7.31 7.31 0 0 1 290.674 34.814 A 3.643 3.643 0 0 1 290.68 34.596 Q 290.699 34.278 290.779 34.154 A 0.209 0.209 0 0 1 290.82 34.106 A 0.504 0.504 0 0 1 291.022 34.006 Q 291.108 33.984 291.211 33.984 Q 291.455 33.984 291.699 33.911 A 0.485 0.485 0 0 0 291.859 33.824 Q 291.987 33.723 292.114 33.522 A 2.457 2.457 0 0 0 292.188 33.398 A 52.449 52.449 0 0 1 292.727 32.348 A 43.133 43.133 0 0 1 293.042 31.763 A 11.002 11.002 0 0 1 293.765 30.613 A 9.864 9.864 0 0 1 293.945 30.371 Q 294.434 29.736 295.068 29.199 Q 295.663 28.696 296.514 28.236 A 11.975 11.975 0 0 1 296.631 28.174 A 9.759 9.759 0 0 0 297.789 27.405 A 11.339 11.339 0 0 0 298.169 27.1 Q 298.926 26.465 299.707 25.83 A 10.878 10.878 0 0 1 300.868 25.003 A 9.499 9.499 0 0 1 301.294 24.756 A 3.564 3.564 0 0 1 303.027 24.316 Q 304.346 24.316 305.591 23.853 Q 306.836 23.389 308.105 23.145 Q 310.107 22.852 312.085 22.583 A 29.904 29.904 0 0 1 316.113 22.314 A 8.748 8.748 0 0 1 317.024 22.366 Q 317.483 22.414 318.003 22.508 A 19.049 19.049 0 0 1 318.848 22.681 Q 320.459 23.047 322.144 23.633 A 28.589 28.589 0 0 1 324.847 24.726 A 25.714 25.714 0 0 1 325.317 24.951 Q 326.807 25.684 327.686 26.416 L 327.686 26.563 Q 327.686 27.246 327.441 27.954 Q 327.197 28.662 327.197 29.346 L 327.197 29.541 Q 327.197 29.619 327.259 29.635 A 0.144 0.144 0 0 0 327.295 29.639 Q 328.125 29.639 328.882 29.419 A 5.663 5.663 0 0 1 330.469 29.199 A 1.833 1.833 0 0 0 330.578 29.655 A 1.181 1.181 0 0 0 331.201 30.322 Q 331.836 30.615 332.471 30.859 Q 333.057 31.152 333.569 31.909 A 11.141 11.141 0 0 1 334.182 32.932 A 13.706 13.706 0 0 1 334.521 33.618 Q 334.961 34.57 335.376 35.498 A 14.657 14.657 0 0 0 335.684 36.146 Q 335.838 36.45 335.989 36.705 A 6.82 6.82 0 0 0 336.182 37.012 Q 336.569 37.593 336.885 38.391 A 9.814 9.814 0 0 1 336.89 38.403 Q 337.207 39.209 337.427 40.088 Q 337.646 40.967 337.744 41.821 A 15.592 15.592 0 0 1 337.823 42.744 A 12.245 12.245 0 0 1 337.842 43.408 Q 337.842 44.252 337.568 44.859 A 2.471 2.471 0 0 1 337.476 45.044 A 7.465 7.465 0 0 1 336.95 45.864 A 6.34 6.34 0 0 1 336.67 46.216 A 33.932 33.932 0 0 0 336.149 46.838 A 27.751 27.751 0 0 0 335.864 47.192 A 1.65 1.65 0 0 0 335.498 48.242 A 1.399 1.399 0 0 0 335.645 48.877 A 2.06 2.06 0 0 0 336.033 49.412 A 2.143 2.143 0 0 0 336.035 49.414 A 0.433 0.433 0 0 1 336.093 49.391 Q 336.188 49.36 336.374 49.329 A 5.414 5.414 0 0 1 336.45 49.316 A 0.638 0.638 0 0 0 336.574 49.286 Q 336.763 49.216 336.767 49.032 A 0.368 0.368 0 0 0 336.768 49.023 L 336.768 48.975 A 0.975 0.975 0 0 0 336.611 48.449 A 1.39 1.39 0 0 0 336.45 48.242 A 1.176 1.176 0 0 1 336.133 47.412 A 0.306 0.306 0 0 1 336.139 47.356 Q 336.156 47.264 336.224 47.11 A 2.83 2.83 0 0 1 336.23 47.095 Q 336.318 46.899 336.444 46.878 A 0.187 0.187 0 0 1 336.475 46.875 A 0.53 0.53 0 0 1 336.731 46.945 Q 336.896 47.035 337.061 47.241 A 9.582 9.582 0 0 1 337.622 48.022 A 11.167 11.167 0 0 1 337.799 48.305 Q 337.943 48.543 338.037 48.73 Q 338.184 49.023 338.184 48.926 L 338.135 48.877 Q 338.184 49.121 338.208 49.292 A 2.419 2.419 0 0 1 338.229 49.515 A 2.913 2.913 0 0 1 338.232 49.658 Q 338.232 50.342 338.013 50.952 A 6.918 6.918 0 0 1 337.796 51.487 Q 337.683 51.733 337.56 51.943 A 4.153 4.153 0 0 1 337.524 52.002 Q 337.319 52.338 337.142 52.589 A 6.301 6.301 0 0 1 337.036 52.734 A 7.696 7.696 0 0 0 336.985 52.804 Q 336.816 53.033 336.816 53.076 Q 336.816 53.535 337.097 54.037 A 3.043 3.043 0 0 0 337.134 54.102 A 2.262 2.262 0 0 1 337.451 55.273 A 0.599 0.599 0 0 1 337.435 55.419 A 0.346 0.346 0 0 1 337.231 55.664 Q 337.012 55.762 336.768 55.762 Q 336.328 55.762 336.035 55.664 Q 336.084 56.592 336.206 57.471 A 13.121 13.121 0 0 1 336.328 59.277 A 11.72 11.72 0 0 1 336.315 59.849 Q 336.269 60.784 336.06 61.108 Q 335.791 61.523 335.498 61.621 Q 335.205 61.719 334.937 61.841 A 0.316 0.316 0 0 0 334.796 61.979 Q 334.68 62.183 334.669 62.644 A 4.177 4.177 0 0 0 334.668 62.744 A 0.863 0.863 0 0 1 334.609 63.041 Q 334.514 63.299 334.266 63.618 A 4.762 4.762 0 0 1 334.058 63.867 A 10.697 10.697 0 0 1 333.305 64.626 A 13.966 13.966 0 0 1 332.593 65.234 A 11.93 11.93 0 0 1 331.06 66.281 A 10.913 10.913 0 0 1 330.835 66.406 Q 330.076 66.817 329.575 66.882 A 1.396 1.396 0 0 1 329.395 66.895 A 0.544 0.544 0 0 1 329.273 66.88 Q 329.172 66.856 329.053 66.797 A 7.026 7.026 0 0 0 329.072 67.304 A 8.461 8.461 0 0 0 329.102 67.627 Q 329.15 68.066 329.15 68.457 A 1.594 1.594 0 0 1 329.123 68.763 Q 329.047 69.15 328.76 69.312 A 6.663 6.663 0 0 1 328.289 69.551 A 8.469 8.469 0 0 1 327.881 69.727 Q 327.148 70.068 326.367 70.728 A 175.9 175.9 0 0 1 324.756 72.07 A 14.222 14.222 0 0 1 323.391 73.068 A 12.725 12.725 0 0 1 323.071 73.267 A 3.568 3.568 0 0 1 321.946 73.713 A 3.274 3.274 0 0 1 321.289 73.779 A 2.774 2.774 0 0 1 319.849 73.389 Q 319.189 72.998 318.311 72.998 A 4.623 4.623 0 0 0 317.737 73.032 Q 317.444 73.068 317.195 73.145 A 2.441 2.441 0 0 0 316.992 73.218 A 8.355 8.355 0 0 0 316.171 73.605 A 7.433 7.433 0 0 0 315.991 73.706 A 10.494 10.494 0 0 1 315.039 74.194 A 2.458 2.458 0 0 1 314.381 74.382 A 3.229 3.229 0 0 1 313.916 74.414 A 5.214 5.214 0 0 1 312.014 74.044 A 6.482 6.482 0 0 1 311.377 73.755 A 18.691 18.691 0 0 0 309.98 73.098 A 14.992 14.992 0 0 0 308.936 72.705 A 7.826 7.826 0 0 0 307.784 72.394 A 8.948 8.948 0 0 0 307.471 72.339 Q 306.689 72.217 305.957 72.07 Q 305.225 71.924 304.565 71.606 Q 303.906 71.289 303.418 70.703 Q 302.393 69.434 301.025 68.604 Q 299.658 67.773 298.242 67.041 Q 296.826 66.309 295.508 65.503 A 8.069 8.069 0 0 1 293.305 63.501 A 9.205 9.205 0 0 1 293.213 63.379 Q 292.48 62.354 291.553 61.157 Q 290.625 59.961 289.819 58.643 Q 289.014 57.324 288.477 55.957 A 7.799 7.799 0 0 1 288.016 54.272 A 6.675 6.675 0 0 1 287.939 53.272 A 9.219 9.219 0 0 1 288.135 51.367 A 99.752 99.752 0 0 1 288.55 49.487 A 99.752 99.752 0 0 0 288.965 47.607 A 9.219 9.219 0 0 0 289.16 45.703 Z M 97.705 47.998 L 97.705 47.51 A 10.615 10.615 0 0 0 97.657 46.538 Q 97.612 46.05 97.525 45.504 A 20.202 20.202 0 0 0 97.437 44.995 A 41.611 41.611 0 0 0 96.777 42.065 A 76.902 76.902 0 0 0 95.947 39.136 A 84.802 84.802 0 0 0 95.546 37.855 Q 95.325 37.169 95.117 36.572 Q 94.727 35.449 94.482 34.766 L 94.238 34.082 Q 93.866 34.175 93.626 34.18 A 1.271 1.271 0 0 1 93.604 34.18 A 3.392 3.392 0 0 1 92.879 34.106 A 2.584 2.584 0 0 1 92.163 33.838 A 39.561 39.561 0 0 0 91.516 33.484 A 53.12 53.12 0 0 0 90.796 33.105 A 8.894 8.894 0 0 0 90.096 32.785 Q 89.722 32.631 89.289 32.486 A 16.716 16.716 0 0 0 88.94 32.373 Q 88.202 32.143 87.145 32.068 A 15.66 15.66 0 0 0 86.035 32.031 Q 84.033 32.031 82.08 31.763 Q 80.127 31.494 78.125 31.494 A 10.945 10.945 0 0 0 72.998 32.739 A 14.633 14.633 0 0 0 68.799 36.011 A 15.566 15.566 0 0 0 65.967 40.576 Q 64.941 43.115 64.941 45.703 A 56.876 56.876 0 0 0 64.948 46.56 Q 64.96 47.318 64.99 48.218 Q 65.039 49.658 65.234 51.099 A 14.067 14.067 0 0 0 65.641 53.068 A 12.224 12.224 0 0 0 65.869 53.784 Q 66.231 54.81 66.826 55.422 A 3.052 3.052 0 0 0 67.09 55.664 L 67.09 57.031 Q 67.285 57.227 67.603 57.251 A 8.273 8.273 0 0 0 68.237 57.275 A 2.34 2.34 0 0 1 68.519 57.292 Q 68.669 57.31 68.799 57.349 A 0.496 0.496 0 0 1 69.019 57.489 Q 69.08 57.554 69.131 57.645 A 1.208 1.208 0 0 1 69.189 57.764 A 9.264 9.264 0 0 0 69.708 58.975 Q 70.031 59.595 70.422 60.068 A 4.736 4.736 0 0 0 70.85 60.522 A 11.536 11.536 0 0 0 73.047 62.134 L 75.391 63.452 A 6.461 6.461 0 0 1 76.713 64.45 A 8.517 8.517 0 0 1 77.539 65.381 Q 77.93 65.332 78.369 65.308 A 16.041 16.041 0 0 1 78.899 65.287 A 13.401 13.401 0 0 1 79.199 65.283 Q 80.762 65.283 82.251 65.503 A 20.546 20.546 0 0 0 85.254 65.723 A 5.266 5.266 0 0 0 88.159 64.893 Q 89.453 64.063 90.381 62.793 A 29.263 29.263 0 0 1 90.807 62.205 Q 91.15 61.743 91.455 61.377 Q 91.943 60.791 92.456 60.278 A 10.954 10.954 0 0 1 93.541 59.331 A 11.984 11.984 0 0 1 93.579 59.302 Q 94.189 58.838 95.02 58.252 Q 95.221 58.118 95.48 57.937 A 47.414 47.414 0 0 0 95.728 57.764 A 9.486 9.486 0 0 0 96.35 57.283 A 10.797 10.797 0 0 0 96.558 57.105 A 6.607 6.607 0 0 0 96.981 56.698 A 5.15 5.15 0 0 0 97.266 56.372 Q 97.48 56.105 97.537 55.85 A 0.84 0.84 0 0 0 97.559 55.664 A 3.271 3.271 0 0 0 97.437 54.785 A 3.271 3.271 0 0 1 97.314 53.906 A 4.058 4.058 0 0 1 97.335 53.513 Q 97.369 53.162 97.461 52.734 A 5.527 5.527 0 0 1 97.925 51.416 A 3.803 3.803 0 0 1 98.328 50.771 A 3.126 3.126 0 0 1 98.706 50.366 A 1.619 1.619 0 0 1 99.686 49.958 A 2.124 2.124 0 0 1 99.854 49.951 A 2.504 2.504 0 0 1 100.726 50.112 A 2.99 2.99 0 0 1 100.928 50.195 Q 101.465 50.439 101.904 50.781 Q 102.002 50.293 102.002 50.049 A 1.571 1.571 0 0 0 101.968 49.706 Q 101.923 49.507 101.821 49.369 A 0.744 0.744 0 0 0 101.416 49.097 A 5.455 5.455 0 0 0 100.731 48.946 A 7.209 7.209 0 0 0 100.098 48.877 A 20.538 20.538 0 0 1 98.657 48.73 A 1.338 1.338 0 0 1 98.227 48.601 Q 97.888 48.427 97.726 48.049 A 1.434 1.434 0 0 1 97.705 47.998 Z M 329.053 47.998 L 329.053 47.51 A 10.615 10.615 0 0 0 329.005 46.538 Q 328.96 46.05 328.872 45.504 A 20.202 20.202 0 0 0 328.784 44.995 A 41.611 41.611 0 0 0 328.125 42.065 A 76.902 76.902 0 0 0 327.295 39.136 A 84.802 84.802 0 0 0 326.894 37.855 Q 326.672 37.169 326.465 36.572 Q 326.074 35.449 325.83 34.766 L 325.586 34.082 Q 325.213 34.175 324.974 34.18 A 1.271 1.271 0 0 1 324.951 34.18 A 3.392 3.392 0 0 1 324.227 34.106 A 2.584 2.584 0 0 1 323.511 33.838 A 39.561 39.561 0 0 0 322.864 33.484 A 53.12 53.12 0 0 0 322.144 33.105 A 8.894 8.894 0 0 0 321.444 32.785 Q 321.07 32.631 320.636 32.486 A 16.716 16.716 0 0 0 320.288 32.373 Q 319.55 32.143 318.492 32.068 A 15.66 15.66 0 0 0 317.383 32.031 Q 315.381 32.031 313.428 31.763 Q 311.475 31.494 309.473 31.494 A 10.945 10.945 0 0 0 304.346 32.739 A 14.633 14.633 0 0 0 300.146 36.011 A 15.566 15.566 0 0 0 297.314 40.576 Q 296.289 43.115 296.289 45.703 A 56.876 56.876 0 0 0 296.296 46.56 Q 296.307 47.318 296.338 48.218 Q 296.387 49.658 296.582 51.099 A 14.067 14.067 0 0 0 296.989 53.068 A 12.224 12.224 0 0 0 297.217 53.784 Q 297.579 54.81 298.173 55.422 A 3.052 3.052 0 0 0 298.438 55.664 L 298.438 57.031 Q 298.633 57.227 298.95 57.251 A 8.273 8.273 0 0 0 299.585 57.275 A 2.34 2.34 0 0 1 299.866 57.292 Q 300.017 57.31 300.146 57.349 A 0.496 0.496 0 0 1 300.366 57.489 Q 300.427 57.554 300.479 57.645 A 1.208 1.208 0 0 1 300.537 57.764 A 9.264 9.264 0 0 0 301.056 58.975 Q 301.379 59.595 301.77 60.068 A 4.736 4.736 0 0 0 302.197 60.522 A 11.536 11.536 0 0 0 304.395 62.134 L 306.738 63.452 A 6.461 6.461 0 0 1 308.061 64.45 A 8.517 8.517 0 0 1 308.887 65.381 Q 309.277 65.332 309.717 65.308 A 16.041 16.041 0 0 1 310.247 65.287 A 13.401 13.401 0 0 1 310.547 65.283 Q 312.109 65.283 313.599 65.503 A 20.546 20.546 0 0 0 316.602 65.723 A 5.266 5.266 0 0 0 319.507 64.893 Q 320.801 64.063 321.729 62.793 A 29.263 29.263 0 0 1 322.154 62.205 Q 322.498 61.743 322.803 61.377 Q 323.291 60.791 323.804 60.278 A 10.954 10.954 0 0 1 324.889 59.331 A 11.984 11.984 0 0 1 324.927 59.302 Q 325.537 58.838 326.367 58.252 Q 326.569 58.118 326.828 57.937 A 47.414 47.414 0 0 0 327.075 57.764 A 9.486 9.486 0 0 0 327.698 57.283 A 10.797 10.797 0 0 0 327.905 57.105 A 6.607 6.607 0 0 0 328.328 56.698 A 5.15 5.15 0 0 0 328.613 56.372 Q 328.827 56.105 328.885 55.85 A 0.84 0.84 0 0 0 328.906 55.664 A 3.271 3.271 0 0 0 328.784 54.785 A 3.271 3.271 0 0 1 328.662 53.906 A 4.058 4.058 0 0 1 328.683 53.513 Q 328.717 53.162 328.809 52.734 A 5.527 5.527 0 0 1 329.272 51.416 A 3.803 3.803 0 0 1 329.676 50.771 A 3.126 3.126 0 0 1 330.054 50.366 A 1.619 1.619 0 0 1 331.034 49.958 A 2.124 2.124 0 0 1 331.201 49.951 A 2.504 2.504 0 0 1 332.074 50.112 A 2.99 2.99 0 0 1 332.275 50.195 Q 332.813 50.439 333.252 50.781 Q 333.35 50.293 333.35 50.049 A 1.571 1.571 0 0 0 333.315 49.706 Q 333.271 49.507 333.169 49.369 A 0.744 0.744 0 0 0 332.764 49.097 A 5.455 5.455 0 0 0 332.079 48.946 A 7.209 7.209 0 0 0 331.445 48.877 A 20.538 20.538 0 0 1 330.005 48.73 A 1.338 1.338 0 0 1 329.575 48.601 Q 329.236 48.427 329.074 48.049 A 1.434 1.434 0 0 1 329.053 47.998 Z M 275.049 47.949 A 1.501 1.501 0 0 0 274.947 47.498 A 1.205 1.205 0 0 0 274.536 46.973 A 4.891 4.891 0 0 0 273.56 46.411 A 5.256 5.256 0 0 1 273.203 46.243 Q 272.928 46.1 272.73 45.947 Q 272.448 45.731 272.608 45.323 A 1.307 1.307 0 0 1 272.656 45.215 A 1.392 1.392 0 0 1 272.719 45.021 Q 272.814 44.791 272.974 44.702 A 0.941 0.941 0 0 1 273.438 44.58 Q 273.34 43.701 272.607 42.529 A 14.184 14.184 0 0 1 272.077 41.609 Q 271.832 41.143 271.658 40.712 A 7.593 7.593 0 0 1 271.533 40.381 A 7.359 7.359 0 0 1 271.292 39.684 A 5.396 5.396 0 0 1 271.143 39.014 A 6.593 6.593 0 0 0 270.982 38.258 A 5.541 5.541 0 0 0 270.85 37.842 Q 270.654 37.305 270.288 36.841 A 2.897 2.897 0 0 0 269.971 36.504 Q 269.641 36.201 269.141 35.889 A 50.091 50.091 0 0 0 268.861 35.727 Q 268.463 35.498 268.188 35.352 A 4.42 4.42 0 0 1 267.827 35.137 A 3.375 3.375 0 0 1 267.554 34.937 A 2.168 2.168 0 0 1 267.245 34.623 A 2.77 2.77 0 0 1 267.065 34.375 A 3.759 3.759 0 0 1 266.929 34.142 Q 266.799 33.903 266.647 33.566 A 14.623 14.623 0 0 1 266.553 33.35 Q 266.368 32.857 266.135 32.549 A 1.544 1.544 0 0 0 265.845 32.251 Q 265.43 31.934 264.917 31.787 Q 264.404 31.641 263.794 31.543 A 5.977 5.977 0 0 1 262.865 31.314 A 6.94 6.94 0 0 1 262.549 31.201 A 47.704 47.704 0 0 0 260.592 30.536 A 39.89 39.89 0 0 0 259.473 30.2 Q 258.008 29.785 256.25 29.785 A 18.304 18.304 0 0 0 253.816 29.938 Q 252.043 30.176 250.659 30.786 A 9.86 9.86 0 0 0 247.527 32.935 A 9.448 9.448 0 0 0 246.924 33.618 A 12.177 12.177 0 0 0 245.154 36.676 A 14.762 14.762 0 0 0 244.702 37.964 A 24.858 24.858 0 0 0 243.93 41.464 A 30.291 30.291 0 0 0 243.701 43.457 A 16.684 16.684 0 0 1 243.335 45.801 Q 243.066 46.973 242.773 48.12 A 53.398 53.398 0 0 0 242.236 50.439 Q 241.992 51.611 241.992 52.783 Q 241.992 53.32 242.041 53.54 Q 242.09 53.76 242.48 54.15 A 4.54 4.54 0 0 1 243.071 55.024 A 3.426 3.426 0 0 1 243.433 56.201 A 53.49 53.49 0 0 1 243.588 57.771 A 47.81 47.81 0 0 1 243.628 58.276 A 6.213 6.213 0 0 0 243.795 59.341 A 5.06 5.06 0 0 0 244.043 60.083 Q 244.385 60.889 245.605 61.279 A 6.94 6.94 0 0 1 246.025 61.433 Q 246.407 61.589 246.649 61.753 A 1.868 1.868 0 0 1 246.704 61.792 A 2.794 2.794 0 0 1 247.185 62.236 A 2.52 2.52 0 0 1 247.314 62.402 A 6.329 6.329 0 0 1 247.639 62.907 A 7.489 7.489 0 0 1 247.778 63.159 Q 247.967 63.516 248.282 63.927 A 8.434 8.434 0 0 0 248.389 64.063 A 14.862 14.862 0 0 1 250.488 63.721 A 14.862 14.862 0 0 0 252.588 63.379 A 1.117 1.117 0 0 0 252.999 64.256 A 1.712 1.712 0 0 0 253.198 64.404 A 4.19 4.19 0 0 0 254.024 64.808 A 5.402 5.402 0 0 0 254.639 64.99 A 11.712 11.712 0 0 0 256.323 65.259 A 32.402 32.402 0 0 0 256.725 65.291 Q 257.112 65.319 257.388 65.328 A 7.211 7.211 0 0 0 257.617 65.332 A 20.987 20.987 0 0 0 258.693 65.303 A 24.9 24.9 0 0 0 259.375 65.259 Q 260.303 65.186 261.157 64.941 A 6.471 6.471 0 0 0 262.769 64.233 A 3.271 3.271 0 0 0 263.937 62.991 A 3.871 3.871 0 0 0 263.965 62.939 Q 264.622 61.801 265.494 61.232 A 3.579 3.579 0 0 1 265.698 61.108 Q 266.699 60.547 267.7 60.107 A 8.849 8.849 0 0 0 269.556 59.009 A 3.157 3.157 0 0 0 270.281 58.201 Q 270.621 57.669 270.85 56.934 A 279.543 279.543 0 0 1 271.973 53.442 A 11.576 11.576 0 0 0 272.559 49.805 A 6.333 6.333 0 0 0 272.437 48.56 A 6.333 6.333 0 0 0 272.07 47.363 A 8.116 8.116 0 0 1 272.812 47.787 A 9.995 9.995 0 0 1 273.267 48.096 A 2.383 2.383 0 0 0 273.916 48.432 A 2.054 2.054 0 0 0 274.561 48.535 A 0.551 0.551 0 0 0 274.711 48.516 A 0.387 0.387 0 0 0 274.927 48.364 A 0.649 0.649 0 0 0 275.039 48.083 A 0.865 0.865 0 0 0 275.049 47.949 Z M 214.502 32.91 L 214.453 32.91 A 0.897 0.897 0 0 1 214.336 33.349 A 1.167 1.167 0 0 1 214.258 33.472 A 0.618 0.618 0 0 1 213.814 33.735 A 0.798 0.798 0 0 1 213.721 33.74 A 2.314 2.314 0 0 1 212.598 33.447 A 3.421 3.421 0 0 1 211.67 32.715 A 118.714 118.714 0 0 1 209.906 31.909 A 87.633 87.633 0 0 1 208.325 31.152 A 33.656 33.656 0 0 0 205.347 29.858 A 18.566 18.566 0 0 0 202.695 29.085 A 20.869 20.869 0 0 0 202.173 28.98 Q 200.614 28.686 198.616 28.664 A 29.632 29.632 0 0 0 198.291 28.662 A 2.78 2.78 0 0 0 198.056 28.672 A 2.31 2.31 0 0 0 197.925 28.687 A 0.507 0.507 0 0 0 197.711 28.771 A 0.704 0.704 0 0 0 197.607 28.857 L 197.852 29.395 L 197.461 29.492 Q 196.143 29.736 195.288 29.956 Q 194.434 30.176 193.75 30.566 A 8.526 8.526 0 0 0 192.738 31.248 A 9.879 9.879 0 0 0 192.407 31.519 A 444.116 444.116 0 0 0 192.055 31.819 Q 191.571 32.232 190.935 32.777 A 1302.619 1302.619 0 0 0 190.723 32.959 Q 190.234 33.398 189.673 33.618 A 15.333 15.333 0 0 1 188.55 34.009 A 16.783 16.783 0 0 0 187.605 34.327 A 15.171 15.171 0 0 0 187.476 34.375 Q 186.963 34.57 186.621 35.01 A 10.34 10.34 0 0 1 185.62 37.378 A 4.78 4.78 0 0 0 184.961 39.795 A 1.643 1.643 0 0 0 185.378 40.889 A 2.307 2.307 0 0 0 185.571 41.089 Q 186.173 41.642 187.106 42.03 A 7.302 7.302 0 0 0 187.134 42.041 A 14.686 14.686 0 0 0 188.398 42.491 A 18.135 18.135 0 0 0 189.233 42.725 A 19.229 19.229 0 0 0 191.504 43.164 A 44.985 44.985 0 0 0 192.584 43.292 A 34.841 34.841 0 0 0 193.579 43.384 A 37.347 37.347 0 0 0 194.029 43.416 Q 194.516 43.447 194.867 43.455 A 9.586 9.586 0 0 0 195.068 43.457 Q 196.924 43.457 198.73 43.091 Q 200.537 42.725 202.393 42.725 Q 204.297 42.725 206.201 42.896 Q 208.105 43.066 210.01 43.066 A 13.865 13.865 0 0 0 210.284 43.063 Q 210.742 43.054 211.475 43.018 A 11.005 11.005 0 0 0 213.403 42.749 A 6.704 6.704 0 0 0 214.32 42.471 A 5.145 5.145 0 0 0 215.063 42.114 A 1.785 1.785 0 0 0 215.421 41.844 A 1.128 1.128 0 0 0 215.771 41.016 Q 215.771 40.283 215.527 39.6 A 10.084 10.084 0 0 1 215.137 38.184 A 15.378 15.378 0 0 1 214.899 35.929 A 13.904 13.904 0 0 1 214.893 35.522 A 9.103 9.103 0 0 0 214.549 33.075 A 10.193 10.193 0 0 0 214.502 32.91 Z" vector-effect="non-scaling-stroke"/></g></svg>